<?xml version="1.0" standalone="no"?>
<!DOCTYPE svg PUBLIC "-//W3C//DTD SVG 1.1//EN" "http://www.w3.org/Graphics/SVG/1.1/DTD/svg11.dtd" >
<svg>
<metadata>
Created by FontForge 20090622 at Wed Aug  1 11:06:44 2018
 By deploy user
Copyright (c) 2011 by Fontsmith Ltd. All rights reserved.
</metadata>
<defs>
<font id="MAC-Bold" horiz-adv-x="450" >
  <font-face 
    font-family="MAC"
    font-weight="700"
    font-stretch="normal"
    units-per-em="1000"
    panose-1="2 0 8 3 4 0 0 2 0 3"
    ascent="730"
    descent="-270"
    x-height="492"
    cap-height="716"
    bbox="-140 -310 1435 1084"
    underline-thickness="50"
    underline-position="-50"
    unicode-range="U+000D-U+FB02"
  />
<missing-glyph horiz-adv-x="632" 
d="M64 0v706h504v-706h-504zM317 398l171 258h-344zM346 353l172 -257v514zM144 51h344l-171 256zM115 610v-514l171 257z" />
    <glyph glyph-name="fi" unicode="fi" horiz-adv-x="625" 
d="M570 683v-135h-76q-33 0 -46 9t-13 33v93h135zM364 382h-176v-382h-135v517q0 92 51 145q52 54 146 54q82 0 156 -36l-35 -99q-61 16 -96 16q-48 0 -69 -22q-18 -18 -18 -61v-62l20 21q18 19 52 19h310v-492h-135v386l-1 1q-37 -5 -70 -5z" />
    <glyph glyph-name="fl" unicode="fl" horiz-adv-x="666" 
d="M556 695v-592l1 -1q31 8 70 8h17v-110h-97q-63 0 -95 29q-31 28 -31 90v474q-49 7 -96 7q-137 0 -137 -110v-38l20 21q18 19 52 19h98v-110h-170v-382h-135v493q0 117 76 170t202 53q105 0 225 -21z" />
    <glyph glyph-name=".notdef" horiz-adv-x="632" 
d="M64 0v706h504v-706h-504zM317 398l171 258h-344zM346 353l172 -257v514zM144 51h344l-171 256zM115 610v-514l171 257z" />
    <glyph glyph-name=".null" horiz-adv-x="0" 
 />
    <glyph glyph-name=".null" horiz-adv-x="0" 
 />
    <glyph glyph-name="nonmarkingreturn" horiz-adv-x="333" 
 />
    <glyph glyph-name="CR" unicode="&#xd;" horiz-adv-x="178" 
 />
    <glyph glyph-name="space" unicode=" " horiz-adv-x="178" 
 />
    <glyph glyph-name="exclam" unicode="!" horiz-adv-x="291" 
d="M212 716l-5 -505h-117l-12 464zM213 0v135h-130v-92q0 -25 13 -34t47 -9h70z" />
    <glyph glyph-name="quotedbl" unicode="&#x22;" horiz-adv-x="410" 
d="M44 458l-9 258h136l-13 -297h-69q-43 0 -45 39zM248 458l-9 258h136l-13 -297h-69q-43 0 -45 39z" />
    <glyph glyph-name="numbersign" unicode="#" horiz-adv-x="702" 
d="M284 428l-15 -161h141l15 161h-141zM21 267h126l16 161h-55q-34 0 -46.5 11.5t-12.5 43.5v59h124l16 164h121l-15 -164h142l15 164h120l-16 -164h110v-114h-120l-16 -161h113v-114h-123l-15 -153h-120l14 153h-141l-15 -153h-121l15 153h-57q-34 0 -46.5 11.5t-12.5 43.5
v59z" />
    <glyph glyph-name="dollar" unicode="$" horiz-adv-x="566" 
d="M258 714v129h57v-127q103 -4 192 -56l-56 -109q-69 38 -136 41v-170h1q2 -1 3 -1q109 -39 159 -82t50 -123q0 -97 -57.5 -155t-155.5 -68v-121h-57v118q-123 4 -224 73l56 104q93 -52 168 -53v185q-15 5 -19 7q-98 33 -145.5 81t-47.5 127q0 84 57 137.5t155 62.5z
M389 202q0 24 -16.5 40.5t-57.5 34.5v-158q35 9 54.5 31t19.5 52zM184 522q0 -25 17.5 -43t56.5 -35v146q-74 -15 -74 -68z" />
    <glyph glyph-name="percent" unicode="%" horiz-adv-x="1014" 
d="M222 332q-87 0 -141.5 52t-54.5 141t54.5 140t141.5 51t141.5 -51t54.5 -140t-54.5 -141t-141.5 -52zM222 431q37 0 58.5 24t21.5 70q0 92 -80 92t-80 -92q0 -46 21.5 -70t58.5 -24zM792 -10q-87 0 -141.5 52t-54.5 141t54.5 140t141.5 51t141.5 -51t54.5 -140
t-54.5 -141t-141.5 -52zM792 89q37 0 58.5 24t21.5 70q0 92 -80 92t-80 -92q0 -46 21.5 -70t58.5 -24zM743 706l-351 -706h-130l351 706h130z" />
    <glyph glyph-name="ampersand" unicode="&#x26;" horiz-adv-x="803" 
d="M566 379l129 50v-60q0 -132 -53 -200l139 -133l-97 -86l-130 121q-99 -81 -222 -81q-133 0 -209.5 63.5t-76.5 165.5q0 71 43 117.5t109 68.5q-60 66 -60 134q0 79 60 128t157 49q145 0 236 -116l-96 -85q-60 76 -138 76q-33 0 -54 -14.5t-21 -41.5q0 -22 16 -42.5
t70 -70.5l176 -166q22 33 22 91v32zM458 156l-181 172q-38 -9 -62 -37t-24 -67q0 -49 40.5 -80.5t103.5 -31.5q39 0 72.5 12t50.5 32z" />
    <glyph glyph-name="quotesingle" unicode="'" horiz-adv-x="206" 
d="M44 458l-9 258h136l-13 -297h-69q-43 0 -45 39z" />
    <glyph glyph-name="parenleft" unicode="(" horiz-adv-x="382" 
d="M67 303q0 164 62.5 294.5t153.5 221.5l81 -48q-149 -195 -149 -468t149 -468l-81 -48q-91 91 -153.5 221.5t-62.5 294.5z" />
    <glyph glyph-name="parenright" unicode=")" horiz-adv-x="382" 
d="M315 303q0 -164 -62.5 -294.5t-153.5 -221.5l-81 48q149 195 149 468t-149 468l81 48q91 -91 153.5 -221.5t62.5 -294.5z" />
    <glyph glyph-name="asterisk" unicode="*" horiz-adv-x="445" 
d="M208 455l-32 -75l-111 65l108 103l-2 2q-12 -12 -40 -12l-101 9l42 126l125 -67l1 3q-16 11 -24 43l-15 85h129l-31 -141l3 -1q9 19 35 35l77 43l43 -127l-145 -8v-4q22 -5 42 -26l67 -67l-107 -63l-53 129h-3q0 -32 -8 -52z" />
    <glyph glyph-name="plus" unicode="+" horiz-adv-x="590" 
d="M227 256h-117q-37 0 -51 9.5t-14 36.5v70h182v189h133v-189h185v-116h-185v-180h-133v180z" />
    <glyph glyph-name="comma" unicode="," horiz-adv-x="257" 
d="M92 -158l-39 41q59 61 64 117h-26q-29 0 -38.5 10t-9.5 36v103h159v-92q0 -143 -110 -215z" />
    <glyph glyph-name="hyphen" unicode="-" horiz-adv-x="420" 
d="M50 244v70h310v-116h-245q-37 0 -51 9.5t-14 36.5z" />
    <glyph glyph-name="period" unicode="." horiz-adv-x="249" 
d="M199 149v-149h-84q-37 0 -51 9.5t-14 36.5v103h149z" />
    <glyph glyph-name="slash" unicode="/" horiz-adv-x="579" 
d="M554 754l-377 -806h-152l375 806h154z" />
    <glyph glyph-name="zero" unicode="0" horiz-adv-x="725" 
d="M534 347v12q0 104 -43.5 164.5t-123.5 60.5h-4q-79 -1 -126 -62t-47 -163v-12q0 -103 45.5 -163.5t124.5 -61.5h3q81 0 126 60.5t45 164.5zM676 360v-12q0 -162 -88.5 -260t-226.5 -98h-4q-137 0 -222.5 97.5t-85.5 260.5v12q0 161 88.5 258.5t225.5 97.5h4
q131 0 220 -98t89 -258z" />
    <glyph glyph-name="one" unicode="1" horiz-adv-x="586" 
d="M91 512l-23 98q75 28 213 96h107v-586h164l-20 -120h-464v120h177v429h-2l-36 -19q-35 -18 -73 -18h-43z" />
    <glyph glyph-name="two" unicode="2" horiz-adv-x="595" 
d="M170 497l-126 31q29 92 99.5 140t167.5 48q106 0 172 -55.5t66 -150.5q0 -36 -9.5 -66t-22.5 -51.5t-42 -46.5t-50.5 -40l-65.5 -44q-88 -58 -116 -86t-32 -58h338l-22 -118h-444l-30 30v38q0 89 39 142.5t164 133.5q91 58 119.5 85.5t28.5 72.5q0 39 -27 63t-72 24
q-89 0 -135 -92z" />
    <glyph glyph-name="three" unicode="3" horiz-adv-x="606" 
d="M289 -10q-83 0 -152.5 35t-114.5 88l86 87q83 -83 175 -83q69 0 105.5 30.5t36.5 80.5q0 59 -40 83.5t-128 24.5h-52l-22 51l167 201h-279v118h463l22 -54l-182 -218q87 -8 140.5 -60t53.5 -134q0 -119 -73.5 -184.5t-205.5 -65.5z" />
    <glyph glyph-name="four" unicode="4" horiz-adv-x="625" 
d="M344 155h-285l-29 67l228 484h153l-210 -439h215v213h142v-480h-142v199l-23 -25q-18 -19 -49 -19z" />
    <glyph glyph-name="five" unicode="5" horiz-adv-x="608" 
d="M203 409l14 8q43 24 94 24h8q128 0 193 -65q54 -56 54 -142q0 -111 -74.5 -177.5t-200.5 -66.5q-162 0 -267 116l80 89q38 -35 87 -56.5t96 -21.5h3q63 0 98.5 30.5t35.5 79.5q0 48 -33 72t-116 24q-69 0 -171 -21l-26 17l24 387h414l-22 -118h-278z" />
    <glyph glyph-name="six" unicode="6" horiz-adv-x="648" 
d="M596 570l-133 -37q-40 59 -115 59q-73 0 -114.5 -54.5t-45.5 -136.5l26 17q76 49 149 49q107 0 174.5 -61.5t67.5 -163.5q0 -111 -74.5 -181.5t-185.5 -70.5q-138 0 -217 96.5t-79 265.5q0 159 81 261.5t227 102.5q78 0 140.5 -37.5t98.5 -108.5zM194 288
q3 -73 44.5 -124t102.5 -51q58 0 92 32.5t34 88.5q0 50 -34 80.5t-89 30.5q-41 0 -82 -16t-68 -41z" />
    <glyph glyph-name="seven" unicode="7" horiz-adv-x="586" 
d="M313 0h-149v138q0 67 19.5 118.5t80.5 147.5l116 182h-354v120h514l31 -64l-191 -301q-41 -65 -54 -108t-13 -101v-132z" />
    <glyph glyph-name="eight" unicode="8" horiz-adv-x="628" 
d="M567 526q0 -115 -112 -153q140 -45 140 -166q0 -94 -76.5 -155.5t-205.5 -61.5q-126 0 -203 60.5t-77 150.5q0 57 37.5 101t98.5 61q-53 22 -83 63.5t-30 94.5q0 83 69 139t185 56q117 0 187 -55t70 -135zM311 312q-134 -14 -134 -106q0 -39 37.5 -67t104.5 -28
q58 0 95 26t37 68q0 44 -35.5 72t-104.5 35zM313 422q53 10 81 36.5t28 60.5t-32 56t-78 22q-53 0 -82.5 -21.5t-29.5 -57.5q0 -34 28.5 -60t84.5 -36z" />
    <glyph glyph-name="nine" unicode="9" horiz-adv-x="642" 
d="M307 115q68 0 107.5 50t38.5 139l-36 -21q-66 -38 -143 -38q-103 0 -167.5 63t-64.5 160q0 114 74.5 181t191.5 67q139 0 212 -91.5t73 -267.5q0 -163 -73.5 -265t-214.5 -102q-79 0 -140 36t-96 104l137 39q35 -54 101 -54zM447 425q-4 77 -40 124.5t-101 47.5
q-52 0 -89 -31.5t-37 -83.5q0 -50 34 -83.5t87 -33.5q83 0 146 60z" />
    <glyph glyph-name="colon" unicode=":" horiz-adv-x="249" 
d="M199 149v-149h-84q-37 0 -51 9.5t-14 36.5v103h149zM199 424v-149h-84q-37 0 -51 9.5t-14 36.5v103h149z" />
    <glyph glyph-name="semicolon" unicode=";" horiz-adv-x="257" 
d="M199 424v-149h-84q-37 0 -51 9.5t-14 36.5v103h149zM96 -158l-39 41q59 61 64 117h-26q-29 0 -38.5 10t-9.5 36v103h159v-92q0 -143 -110 -215z" />
    <glyph glyph-name="less" unicode="&#x3c;" horiz-adv-x="590" 
d="M506 185l-54 -109l-373 180v92l373 194l59 -101l-270 -137v-2z" />
    <glyph glyph-name="equal" unicode="=" horiz-adv-x="590" 
d="M545 140h-435q-37 0 -51 9.5t-14 36.5v70h500v-116zM545 372h-435q-37 0 -51 9.5t-14 36.5v70h500v-116z" />
    <glyph glyph-name="greater" unicode="&#x3e;" horiz-adv-x="590" 
d="M138 76l-54 109l265 117v2l-270 137l59 101l373 -194v-92z" />
    <glyph glyph-name="question" unicode="?" horiz-adv-x="512" 
d="M268 211h-106q-7 34 -7 62q1 43 25 75.5t81 74.5q38 29 54 50t16 50q0 27 -22 49.5t-65 22.5h-3q-84 0 -135 -77l-101 67q41 61 104.5 96t139.5 35h3q105 0 162.5 -52.5t57.5 -128.5q0 -27 -7.5 -50.5t-15.5 -38t-29 -35t-30.5 -27.5l-38.5 -29q-53 -40 -70 -68.5
t-13 -75.5zM280 0v135h-130v-92q0 -25 13 -34t47 -9h70z" />
    <glyph glyph-name="at" unicode="@" horiz-adv-x="846" 
d="M601 523v-231q0 -41 27 -41q25 0 46 34t21 99q0 116 -72 178.5t-187 62.5q-117 0 -197.5 -76.5t-80.5 -195.5q0 -127 79 -199t220 -72q119 0 224 41l30 -88q-119 -55 -261 -55q-202 0 -312 100.5t-110 272.5q0 160 117 266.5t293 106.5q177 0 278.5 -91t101.5 -233
q0 -119 -57 -179t-143 -60q-79 0 -111 45l-22 -13q-37 -25 -78 -25q-74 0 -123 51.5t-49 129.5v3q0 76 54 129t128 53q68 0 109 -47l48 40zM345 353v-2q0 -37 20 -61.5t55 -24.5h1q22 0 43 12l22 12q8 5 8 13v67q0 34 -18 51q-22 20 -49 20q-37 0 -57 -21q-25 -25 -25 -66z
" />
    <glyph glyph-name="A" unicode="A" horiz-adv-x="705" 
d="M348 493l-92 -235h187l-93 235h-2zM398 716l299 -716h-151l-56 141h-282l-55 -141h-145l280 683z" />
    <glyph glyph-name="B" unicode="B" horiz-adv-x="642" 
d="M69 706h234q138 0 198 -48q62 -49 62 -136q0 -102 -79 -141v-5q51 -13 86.5 -54.5t35.5 -108.5q0 -213 -285 -213h-252v706zM332 303h-123v-184h129q66 0 95.5 23.5t29.5 73.5q0 43 -28 65q-27 22 -103 22zM209 587v-170h119q45 0 69.5 22t24.5 63q0 39 -22 61
q-23 24 -89 24h-102z" />
    <glyph glyph-name="C" unicode="C" horiz-adv-x="727" 
d="M565 237l128 -41q-91 -206 -315 -206q-154 0 -245 101.5t-91 259.5v6q0 158 96 258.5t251 100.5q106 0 185 -54t116 -150l-136 -42q-23 55 -67 85t-101 30q-90 0 -145 -61.5t-55 -165.5v-4q0 -105 54 -168t144 -63q65 0 107.5 29t73.5 85z" />
    <glyph glyph-name="D" unicode="D" horiz-adv-x="726" 
d="M540 346v14q0 108 -62 167q-54 51 -161 51h-108v-450h108q107 0 161 51q62 59 62 167zM684 360v-14q0 -167 -109 -264q-94 -82 -270 -82h-236v706h236q176 0 270 -82q109 -97 109 -264z" />
    <glyph glyph-name="E" unicode="E" horiz-adv-x="582" 
d="M209 377l23 25q18 19 49 19h195v-115h-267v-187h337l-20 -119h-457v706h475l-20 -119h-315v-210z" />
    <glyph glyph-name="F" unicode="F" horiz-adv-x="543" 
d="M281 400h209v-115h-281v-285h-140v706h462l-20 -119h-302v-231l23 25q18 19 49 19z" />
    <glyph glyph-name="G" unicode="G" horiz-adv-x="754" 
d="M688 518l-137 -40q-47 107 -167 107q-88 0 -143 -62.5t-55 -166.5v-4q0 -104 54 -167.5t144 -63.5q77 0 149 37l24 12q11 7 11 18v114l-24 -25q-16 -16 -45 -16h-101v114h290l18 -14v-361h-66l-68 60q-40 -30 -94.5 -50t-107.5 -20q-148 0 -238 101.5t-90 257.5v6
q0 155 97 258q96 103 251 103q102 0 182.5 -52.5t115.5 -145.5z" />
    <glyph glyph-name="H" unicode="H" horiz-adv-x="736" 
d="M69 0v675l140 41v-296h318v255l140 41v-716h-140v300h-246q-31 0 -49 19l-23 25v-344h-140z" />
    <glyph glyph-name="I" unicode="I" horiz-adv-x="284" 
d="M212 716v-716h-140v675z" />
    <glyph glyph-name="J" unicode="J" horiz-adv-x="464" 
d="M404 716v-494q0 -129 -60 -184q-52 -48 -143 -48q-96 0 -183 53l43 107q63 -33 116 -33q45 0 65 20q22 21 22 76v462z" />
    <glyph glyph-name="K" unicode="K" horiz-adv-x="654" 
d="M69 0v675l140 41v-329l76 30l192 289h160l-179 -263q-36 -52 -79 -89l35 -21q28 -17 63 -68l177 -265h-168l-187 282l-90 -28v-254h-140z" />
    <glyph glyph-name="L" unicode="L" horiz-adv-x="525" 
d="M69 0v675l140 41v-596h296l-20 -120h-416z" />
    <glyph glyph-name="M" unicode="M" horiz-adv-x="830" 
d="M761 0h-139v434l-196 -236h-23l-196 232v-430h-138v706h81l267 -328l266 328h78v-706z" />
    <glyph glyph-name="N" unicode="N" horiz-adv-x="736" 
d="M144 706l385 -439v439h138v-706h-75l-385 439v-439h-138v706h75z" />
    <glyph glyph-name="O" unicode="O" horiz-adv-x="780" 
d="M594 347v12q0 92 -55.5 158.5t-146.5 66.5h-4q-92 -1 -147 -67.5t-55 -157.5v-12q0 -91 55 -157.5t147 -67.5h4q91 0 146.5 66.5t55.5 158.5zM738 359v-12q0 -152 -99 -254.5t-247 -102.5h-4q-148 0 -247 102.5t-99 254.5v12q0 152 99 254.5t247 102.5h4
q148 0 247 -102.5t99 -254.5z" />
    <glyph glyph-name="P" unicode="P" horiz-adv-x="616" 
d="M318 234h-36q-33 0 -50 18l-23 25v-277h-140v706h223q129 0 198 -42q43 -27 70.5 -75t27.5 -112q0 -105 -67.5 -174t-202.5 -69zM309 584h-100v-232h104q132 0 132 121q0 111 -136 111z" />
    <glyph glyph-name="Q" unicode="Q" horiz-adv-x="780" 
d="M722 -65l-82 -110l-356 176q-120 59 -181 140t-61 206v12q0 152 99 254.5t247 102.5h4q148 0 247 -102.5t99 -254.5v-12q0 -125 -66.5 -215t-176.5 -129l1 -3q28 2 53 2q44 0 91 -25zM594 347v12q0 92 -55.5 158.5t-146.5 66.5h-4q-92 -1 -147 -67.5t-55 -157.5v-12
q0 -91 55 -157.5t147 -67.5h4q91 0 146.5 66.5t55.5 158.5z" />
    <glyph glyph-name="R" unicode="R" horiz-adv-x="617" 
d="M577 487q0 -77 -41.5 -135.5t-112.5 -77.5l18 -14q29 -23 63 -78l112 -182h-164l-144 251h-99v-251h-140v706h237q63 0 102 -7.5t75 -29.5q43 -26 68.5 -75t25.5 -107zM209 590v-223h92q129 0 129 115q0 52 -29 79q-29 29 -100 29h-92z" />
    <glyph glyph-name="S" unicode="S" horiz-adv-x="566" 
d="M46 514q0 92 67.5 147t180.5 55h5q114 0 208 -56l-56 -109q-75 42 -154 42h-2q-49 0 -80 -19.5t-31 -51.5t31 -53.5t104 -47.5q109 -39 159 -82t50 -123q0 -108 -70 -167t-186 -59h-3q-127 0 -235 73l56 104q98 -53 175 -53h3q54 0 87.5 24.5t33.5 63.5q0 32 -31.5 52.5
t-118.5 51.5q-98 33 -145.5 81t-47.5 127z" />
    <glyph glyph-name="T" unicode="T" horiz-adv-x="585" 
d="M357 0h-140v587h-204v119h572l-20 -119h-208v-587z" />
    <glyph glyph-name="U" unicode="U" horiz-adv-x="696" 
d="M636 716v-436q0 -133 -66 -207q-74 -83 -220 -83h-4q-146 0 -220 83q-66 74 -66 207v395l140 41v-438q0 -82 39 -120q38 -38 107 -38h4q69 0 107 38q39 38 39 120v397z" />
    <glyph glyph-name="V" unicode="V" horiz-adv-x="688" 
d="M676 706l-253 -706h-157l-254 706h155l97 -284q71 -217 81 -253h5q6 21 83 253l93 284h150z" />
    <glyph glyph-name="W" unicode="W" horiz-adv-x="1024" 
d="M405 696h143l178 -540h4q29 147 62 271l74 279h146l-199 -706h-166l-131 379l-132 -379h-167l-205 706h150l72 -257q53 -189 72 -297h4l141 405z" />
    <glyph glyph-name="X" unicode="X" horiz-adv-x="685" 
d="M482 271l187 -271h-165l-164 251l-155 -251h-169l184 263q37 53 70 93l-18 26l-77 115l-137 209h163l146 -241l149 241h159l-147 -223q-49 -75 -92 -126l20 -24q20 -23 46 -62z" />
    <glyph glyph-name="Y" unicode="Y" horiz-adv-x="625" 
d="M382 292v-292h-140v292l-232 414h157l79 -154l67 -136h2q30 67 66 136l79 154h155z" />
    <glyph glyph-name="Z" unicode="Z" horiz-adv-x="599" 
d="M67 0l-37 66l352 521h-330v119h488l31 -75l-346 -512h342l-20 -119h-480z" />
    <glyph glyph-name="bracketleft" unicode="[" horiz-adv-x="373" 
d="M335 -203h-260v1016h260v-117h-37q-47 0 -83 4v-790q36 4 83 4h37v-117z" />
    <glyph glyph-name="backslash" unicode="\" horiz-adv-x="579" 
d="M402 -52l-377 806h154l375 -806h-152z" />
    <glyph glyph-name="bracketright" unicode="]" horiz-adv-x="373" 
d="M298 -203h-260v117h37q47 0 83 -4v790q-36 -4 -83 -4h-37v117h260v-1016z" />
    <glyph glyph-name="asciicircum" unicode="^" horiz-adv-x="590" 
d="M299 508h-7l-141 -218l-104 57l182 294h83q32 0 46 -8t31 -36l154 -250l-103 -57z" />
    <glyph glyph-name="underscore" unicode="_" horiz-adv-x="445" 
d="M435 -119h-372q-32 0 -42.5 9t-10.5 33v44h425v-86z" />
    <glyph glyph-name="grave" unicode="`" 
d="M382 622l-35 -79l-218 66q-23 7 -28.5 20.5t5.5 39.5l32 73z" />
    <glyph glyph-name="a" unicode="a" horiz-adv-x="583" 
d="M166 247v-3q0 -56 31 -93.5t84 -37.5h1q35 0 67 17l35 19q11 7 11 18v105q0 53 -27 77q-34 30 -78 30q-55 0 -87 -32q-37 -37 -37 -100zM530 490v-483l-70 -7l-44 51l-43 -28q-51 -33 -106 -33q-103 0 -171 73.5t-68 179.5v5q0 104 73 179t175 75q99 0 154 -64l85 56z
" />
    <glyph glyph-name="b" unicode="b" horiz-adv-x="583" 
d="M417 247v3q0 55 -30.5 92t-84.5 37h-1q-35 0 -67 -17l-35 -19q-11 -7 -11 -18v-108q0 -50 30 -77q29 -26 78 -26q52 0 84 32q37 37 37 101zM68 -4l-15 4v676l135 40v-140q0 -84 -7 -126l1 -1l26 17q55 36 110 36q101 0 169 -73.5t68 -179.5v-5q0 -105 -69 -179.5
t-171 -74.5q-95 0 -162 62z" />
    <glyph glyph-name="c" unicode="c" horiz-adv-x="517" 
d="M28 244v4q0 107 72.5 180.5t171.5 73.5q130 0 218 -98l-62 -84q-46 34 -76 47.5t-66 13.5q-55 0 -87.5 -36.5t-32.5 -98.5q0 -63 31.5 -98.5t87.5 -35.5q62 0 147 57l59 -81q-90 -98 -221 -98q-107 0 -174.5 73.5t-67.5 180.5z" />
    <glyph glyph-name="d" unicode="d" horiz-adv-x="583" 
d="M166 247v-3q0 -56 31 -93.5t84 -37.5h1q35 0 67 17l35 19q11 7 11 18v109q0 50 -30 77q-29 26 -78 26q-52 0 -84 -32q-37 -37 -37 -100zM395 676l135 40v-709l-68 -7l-41 53l-48 -30q-50 -33 -107 -33q-102 0 -170 73.5t-68 179.5v5q0 104 71.5 179t173.5 75
q72 0 127 -44l1 1q-6 36 -6 122v95z" />
    <glyph glyph-name="e" unicode="e" horiz-adv-x="554" 
d="M484 207h-315q10 -39 40 -68t88 -29q70 0 152 54l59 -81q-42 -44 -102 -68.5t-124 -24.5q-106 0 -180 71.5t-74 180.5v3q0 109 74 183t181 74h1q106 0 174.5 -70t68.5 -175v-7zM390 297q-11 42 -39.5 65.5t-69.5 23.5q-69 0 -100 -62q-6 -12 -11 -30q33 6 75 6h76
q41 0 69 -3z" />
    <glyph glyph-name="f" unicode="f" horiz-adv-x="372" 
d="M188 514v-62l20 21q18 19 52 19h98v-110h-170v-382h-135v517q0 92 51 145q52 54 146 54q88 0 163 -36l-35 -99q-61 16 -103 16q-48 0 -69 -22q-18 -18 -18 -61z" />
    <glyph glyph-name="g" unicode="g" horiz-adv-x="578" 
d="M29 272v2q0 98 67 163t170 65h5q79 0 142 -44l46 24q19 10 41 10h67v-110h-86q27 -51 27 -108v-3q0 -104 -75 -169q85 -51 85 -150q0 -87 -69 -141.5t-177 -54.5q-72 0 -142.5 31t-111.5 77l65 91q92 -78 186 -78q51 0 83.5 24t32.5 67q0 37 -25 56q-21 15 -94 21
q-108 8 -163 58q-74 66 -74 169zM377 273q0 48 -28.5 79t-79.5 31h-1q-51 0 -79.5 -31t-28.5 -79t28.5 -79t79.5 -31h1q51 0 79.5 31t28.5 79z" />
    <glyph glyph-name="h" unicode="h" horiz-adv-x="558" 
d="M53 676l135 40v-139q0 -81 -7 -123l1 -1l7 5q65 44 128 44q87 0 140 -56q52 -54 52 -146v-300h-135v288q0 45 -23 70q-20 22 -57 22q-33 0 -72 -21l-23 -12q-11 -5 -11 -18v-329h-135v676z" />
    <glyph glyph-name="i" unicode="i" horiz-adv-x="275" 
d="M220 683v-135h-76q-33 0 -46 9t-13 33v93h135zM85 0v386l-1 1q-37 -5 -70 -5h-14v110h220v-492h-135z" />
    <glyph glyph-name="j" unicode="j" horiz-adv-x="275" 
d="M220 683v-135h-76q-33 0 -46 9t-13 33v93h135zM220 -211l-135 -25v622l-1 1q-37 -5 -70 -5h-14v110h220v-703z" />
    <glyph glyph-name="k" unicode="k" horiz-adv-x="541" 
d="M53 676l135 40v-418l52 27q23 13 43 41l88 126h139l-149 -213l188 -279h-158l-134 216l-69 -29v-187h-135v676z" />
    <glyph glyph-name="l" unicode="l" horiz-adv-x="298" 
d="M188 716v-613l1 -1q31 8 70 8h17v-110h-97q-63 0 -95 29q-31 28 -31 90v557z" />
    <glyph glyph-name="m" unicode="m" horiz-adv-x="859" 
d="M122 492l32 -55l34 22q65 43 124 43q89 0 146 -68l39 26q64 42 125 42q83 0 136 -56q52 -54 52 -146v-300h-135v288q0 47 -22 70q-20 22 -53 22q-25 0 -67 -21l-23 -12q-11 -5 -11 -18v-329h-135v288q0 47 -22 70q-20 22 -53 22q-25 0 -67 -21l-23 -12q-11 -5 -11 -18
v-329h-135v482z" />
    <glyph glyph-name="n" unicode="n" horiz-adv-x="558" 
d="M122 492l33 -56l34 23q64 43 128 43q87 0 140 -56q52 -54 52 -146v-300h-135v288q0 45 -23 70q-20 22 -57 22q-33 0 -72 -21l-23 -12q-11 -5 -11 -18v-329h-135v482z" />
    <glyph glyph-name="o" unicode="o" horiz-adv-x="567" 
d="M28 245v2q0 107 75 181t180 74h1q105 0 180 -74t75 -181v-2q0 -107 -75 -181t-180 -74h-1q-105 0 -180 74t-75 181zM166 249v-6q0 -57 32.5 -92.5t82.5 -35.5h5q50 0 82.5 35.5t32.5 92.5v6q0 57 -32.5 92.5t-82.5 35.5h-5q-50 0 -82.5 -35.5t-32.5 -92.5z" />
    <glyph glyph-name="p" unicode="p" horiz-adv-x="583" 
d="M417 247v3q0 55 -30.5 92t-84.5 37h-1q-35 0 -67 -17l-35 -19q-11 -7 -11 -18v-109q0 -50 30 -77q29 -26 78 -26q52 0 84 32q37 37 37 102zM122 492l33 -56l34 23q64 43 128 43q101 0 169.5 -73.5t68.5 -179.5v-5q0 -105 -69 -179.5t-171 -74.5q-77 0 -133 45l-1 -1
q7 -42 7 -127v-103l-135 -40v718z" />
    <glyph glyph-name="q" unicode="q" horiz-adv-x="583" 
d="M166 247v-3q0 -56 31 -93.5t84 -37.5h1q35 0 67 17l35 19q11 7 11 18v109q0 50 -30 77q-29 26 -78 26q-52 0 -84 -32q-37 -37 -37 -100zM515 494l15 -4v-686l-135 -40v274l-24 -15q-53 -33 -104 -33q-103 0 -171 73.5t-68 179.5v5q0 104 71.5 179t173.5 75q87 0 157 -64z
" />
    <glyph glyph-name="r" unicode="r" horiz-adv-x="362" 
d="M122 492l31 -54l30 21q34 24 58 33.5t56 9.5t52 -9v-110h-53q-37 0 -77 -20l-20 -10q-11 -5 -11 -18v-335h-135v482z" />
    <glyph glyph-name="s" unicode="s" horiz-adv-x="475" 
d="M390 352q-65 38 -137 38q-83 0 -83 -40q0 -18 28 -29t67.5 -20t79 -22.5t67.5 -44.5t28 -77q0 -76 -54.5 -121.5t-151.5 -45.5q-53 0 -113.5 22.5t-92.5 53.5l48 91q82 -55 152 -55q38 0 59 12.5t21 29.5q0 20 -27.5 32t-66.5 20.5t-78 22t-66.5 46t-27.5 83.5
q0 67 55 110.5t149 43.5q108 0 189 -57z" />
    <glyph glyph-name="t" unicode="t" horiz-adv-x="392" 
d="M48 615l135 40v-163h170v-110h-98q-34 0 -52 19l-20 21v-233q0 -42 14 -59q18 -21 61 -21q40 0 87 20l35 -98q-67 -41 -150 -41t-132.5 48.5t-49.5 137.5v439z" />
    <glyph glyph-name="u" unicode="u" horiz-adv-x="556" 
d="M395 51l-27 -18q-65 -43 -127 -43q-87 0 -140 56q-52 54 -52 146v300h135v-288q0 -45 23 -70q20 -22 57 -22q30 0 70 21l23 12q11 5 11 18v329h135v-485l-70 -7z" />
    <glyph glyph-name="v" unicode="v" horiz-adv-x="538" 
d="M316 267l85 225h133l-205 -492h-118l-207 492h138l90 -226q24 -63 40 -128h1q12 48 43 129z" />
    <glyph glyph-name="w" unicode="w" horiz-adv-x="801" 
d="M631 0h-120l-113 248h-1l-107 -248h-119l-167 492h139l55 -177q28 -90 40 -152h1l146 329h27l155 -329h1q13 75 37 147l59 182h133z" />
    <glyph glyph-name="x" unicode="x" horiz-adv-x="538" 
d="M346 254l188 -254h-152l-60 80q-37 50 -59 87q-19 -33 -55 -85l-57 -82h-147l191 250l-179 242h152l54 -73q39 -54 56 -83q17 32 51 80l54 76h147z" />
    <glyph glyph-name="y" unicode="y" horiz-adv-x="536" 
d="M4 492h138l82 -204q39 -99 50 -143h1q11 51 43 133l82 214h132l-195 -476q19 -44 19 -93q0 -71 -46 -118t-116 -47q-74 0 -129 29l23 94q44 -11 75 -11q64 0 64 58q0 29 -44 134z" />
    <glyph glyph-name="z" unicode="z" horiz-adv-x="465" 
d="M43 0l-26 41l174 247q51 72 72 94h-221v110h385l24 -44l-161 -229q-62 -87 -82 -109h233l-30 -110h-368z" />
    <glyph glyph-name="braceleft" unicode="{" horiz-adv-x="407" 
d="M318 -86h63v-117h-85q-75 0 -119.5 43t-44.5 118q0 10 4 90t4 122q0 39 -19 55t-71 22v112q50 1 70 21t20 61q0 37 -4.5 112.5t-4.5 97.5q0 76 44.5 119t119.5 43h85v-116h-63q-43 0 -43 -46q0 -30 3.5 -96.5t3.5 -98.5q0 -64 -21.5 -100t-69.5 -50v-1q49 -16 70 -52
t21 -100q0 -30 -3 -98.5t-3 -95.5q0 -45 43 -45z" />
    <glyph glyph-name="bar" unicode="|" horiz-adv-x="280" 
d="M205 843v-1066h-130v1066h130z" />
    <glyph glyph-name="braceright" unicode="}" horiz-adv-x="407" 
d="M26 -86h63q43 0 43 45q0 27 -3 95.5t-3 98.5q0 64 21 100t70 52v1q-48 14 -69.5 50t-21.5 100q0 32 3.5 98.5t3.5 96.5q0 46 -43 46h-63v116h85q75 0 119.5 -43t44.5 -119q0 -22 -4.5 -97.5t-4.5 -112.5q0 -41 20 -61t70 -21v-112q-52 -6 -71 -22t-19 -55q0 -42 4 -122
t4 -90q0 -75 -44.5 -118t-119.5 -43h-85v117z" />
    <glyph glyph-name="asciitilde" unicode="~" horiz-adv-x="590" 
d="M404 252q-52 0 -115 36l-35 21q-52 27 -67 29q-45 0 -87 -82l-90 66q32 64 78.5 101t102.5 37q47 0 105 -35l39 -24q39 -25 61 -25q49 0 101 73l83 -69q-76 -128 -176 -128z" />
    <glyph glyph-name="nbspace" unicode="&#xa0;" horiz-adv-x="178" 
 />
    <glyph glyph-name="exclamdown" unicode="&#xa1;" horiz-adv-x="291" 
d="M79 -224l5 505h117l12 -464zM78 357v135h70q34 0 47 -9t13 -34v-92h-130z" />
    <glyph glyph-name="cent" unicode="&#xa2;" horiz-adv-x="529" 
d="M34 244v4q0 103 68.5 175.5t163.5 77.5v122h60v-125q98 -16 170 -94l-62 -84q-67 48 -108 57v-262q46 9 112 54l59 -81q-70 -76 -171 -93v-123h-60v118q-103 4 -167.5 76.5t-64.5 177.5zM172 246q0 -56 24.5 -90.5t69.5 -41.5v264q-44 -8 -69 -43t-25 -89z" />
    <glyph glyph-name="sterling" unicode="&#xa3;" horiz-adv-x="642" 
d="M267 365l27 31q16 19 49 19h164v-116h-229q8 -32 8 -64q0 -73 -49 -124h357l-14 -111h-524l-10 102q107 35 107 131q0 47 -27 134t-27 134q0 100 70 157.5t185 57.5q146 0 232 -116l-96 -83q-58 76 -135 76q-54 0 -85 -25.5t-31 -73.5q0 -43 28 -129z" />
    <glyph glyph-name="currency" unicode="&#xa4;" horiz-adv-x="590" 
d="M513 346v-6q0 -53 -30 -108l65 -78l-84 -70l-57 71q-47 -28 -109 -28h-2q-64 0 -112 28l-57 -71l-84 70l65 79q-29 55 -29 107v6q0 52 30 107l-66 80l84 70l58 -73q47 28 111 28h2q61 0 108 -28l58 73l84 -70l-66 -79q31 -54 31 -108zM393 341v4q0 43 -25.5 71.5
t-69.5 28.5h-2q-45 -1 -71 -29t-26 -71v-4q0 -43 26 -71.5t71 -29.5h2q44 0 69.5 29t25.5 72z" />
    <glyph glyph-name="yen" unicode="&#xa5;" horiz-adv-x="645" 
d="M252 106h-100q-35 0 -44 7.5t-9 31.5v49h153v68h-100q-35 0 -44 7.5t-9 31.5v49h120l-199 356h159l79 -154q58 -116 62 -125h7q13 28 36.5 73.5l26.5 51.5l79 154h156l-201 -356h128v-88h-160v-68h160v-88h-160v-106h-140v106z" />
    <glyph glyph-name="brokenbar" unicode="&#xa6;" horiz-adv-x="289" 
d="M214 192v-415h-139v415h139zM214 843v-397h-139v397h139z" />
    <glyph glyph-name="section" unicode="&#xa7;" horiz-adv-x="626" 
d="M50 278q0 45 29 82t75 56q-61 53 -61 129t68 123.5t179 47.5h3q105 0 207 -57l-56 -111q-76 45 -153 45h-3q-103 0 -103 -51q0 -12 9 -22.5t29.5 -20t36 -14.5l47.5 -15q9 -3 13 -4q120 -37 163 -77t43 -104q0 -46 -25.5 -84t-72.5 -59q30 -15 52 -47t22 -72
q0 -95 -70.5 -145.5t-184.5 -50.5h-3q-128 0 -235 69l56 104q94 -48 175 -48h3q118 0 118 59q0 15 -7.5 26t-25 18.5t-33.5 12.5t-45 13t-48 14q-110 37 -156 73t-46 110zM284 218l85 -29q30 11 48 31.5t18 45.5q0 26 -17 43t-63 33l-108 36q-55 -22 -55 -73q0 -33 19 -51
t73 -36z" />
    <glyph glyph-name="dieresis" unicode="&#xa8;" 
d="M191 690v-125h-71q-31 0 -42.5 8t-11.5 30v87h125zM395 690v-125h-71q-31 0 -42.5 8t-11.5 30v87h125z" />
    <glyph glyph-name="copyright" unicode="&#xa9;" horiz-adv-x="796" 
d="M768 353q0 -157 -99.5 -260t-271.5 -103t-270.5 102.5t-98.5 260.5t98.5 260.5t270.5 102.5t271.5 -103t99.5 -260zM655 353q0 121 -70 192t-188 71q-117 0 -186.5 -71t-69.5 -192t69.5 -193t186.5 -72q118 0 188 72t70 193zM564 245l-50 57q-51 -50 -108 -50
q-42 0 -66.5 25t-24.5 75v2q0 49 24 75t67 26h1q54 0 89 -49l59 51q-51 82 -145 82h-2q-83 0 -135 -52.5t-52 -132.5v-3q0 -82 49 -134t130 -52q102 0 164 80z" />
    <glyph glyph-name="ordfeminine" unicode="&#xaa;" horiz-adv-x="434" 
d="M133 457v-1q0 -38 20 -62.5t56 -24.5q24 0 46 11l22 11q9 6 9 12v71q0 34 -17 51q-23 21 -56 21q-34 0 -56 -22q-24 -24 -24 -67zM398 641v-367l-54 -4l-36 37l-32 -21q-35 -23 -79 -23q-78 0 -129.5 54.5t-51.5 135.5v4q0 80 55 135.5t132 55.5q74 0 115 -47l65 43z" />
    <glyph glyph-name="guillemotleft" unicode="&#xab;" horiz-adv-x="716" 
d="M182 248l160 -149l-80 -79l-227 203v58l234 197l82 -75l-169 -150v-5zM502 248l160 -149l-80 -79l-227 203v58l234 197l82 -75l-169 -150v-5z" />
    <glyph glyph-name="logicalnot" unicode="&#xac;" horiz-adv-x="590" 
d="M412 140v232h-302q-37 0 -51 9.5t-14 36.5v70h500v-348h-133z" />
    <glyph glyph-name="uni00AD" unicode="&#xad;" horiz-adv-x="420" 
d="M50 244v70h310v-116h-245q-37 0 -51 9.5t-14 36.5z" />
    <glyph glyph-name="registered" unicode="&#xae;" horiz-adv-x="796" 
d="M545 424q0 -38 -24 -68.5t-60 -40.5l14 -7q12 -10 30 -39l55 -91h-98l-72 125h-32v-125h-92v361h133q146 0 146 -115zM358 469v-95h32q32 0 46.5 11.5t14.5 38.5q0 45 -55 45h-38zM768 353q0 -157 -99.5 -260t-271.5 -103t-270.5 102.5t-98.5 260.5t98.5 260.5
t270.5 102.5t271.5 -103t99.5 -260zM655 353q0 121 -70 192t-188 71q-117 0 -186.5 -71t-69.5 -192t69.5 -193t186.5 -72q118 0 188 72t70 193z" />
    <glyph glyph-name="macron" unicode="&#xaf;" 
d="M402 690v-112h-290q-31 0 -42.5 8t-11.5 30v74h344z" />
    <glyph glyph-name="degree" unicode="&#xb0;" horiz-adv-x="388" 
d="M194 359q-73 0 -126 51.5t-53 125.5v2q0 74 53 125t126 51t126 -51t53 -125v-2q0 -74 -53 -125.5t-126 -51.5zM196 610h-4q-27 0 -45 -20t-18 -51v-4q0 -30 18 -49t45 -19h4q27 0 45 19t18 49v4q0 31 -18 51t-45 20z" />
    <glyph glyph-name="plusminus" unicode="&#xb1;" horiz-adv-x="590" 
d="M227 365h-117q-37 0 -51 9.5t-14 36.5v70h182v169h133v-169h185v-116h-185v-160h-133v160zM45 116h500v-116h-435q-37 0 -51 9.5t-14 36.5v70z" />
    <glyph glyph-name="twosuperior" unicode="&#xb2;" horiz-adv-x="400" 
d="M175 393v-4h186l-17 -90h-278l-17 17v40q0 42 22 72t84 72q70 47 80 59q9 11 9 23q0 17 -13 27t-30 10h-1q-54 0 -74 -47l-98 19q44 121 177 121h3q68 0 110.5 -34.5t42.5 -85.5q0 -40 -21.5 -69.5t-79.5 -67.5l-27 -17.5l-24 -15t-17.5 -11.5t-12.5 -10t-4 -8z" />
    <glyph glyph-name="threesuperior" unicode="&#xb3;" horiz-adv-x="400" 
d="M345 706l19 -38l-109 -117q55 -3 83 -33.5t28 -80.5q0 -65 -50.5 -104.5t-127.5 -39.5h-3q-56 0 -102.5 23t-70.5 60l76 55q39 -44 90 -44h3q28 0 48 13t20 38q0 44 -64 44h-61l-12 39l83 95h-149v90h299z" />
    <glyph glyph-name="acute" unicode="&#xb4;" 
d="M131 543l-35 79l244 120l32 -73q11 -26 5.5 -39.5t-28.5 -20.5z" />
    <glyph glyph-name="mu" unicode="&#xb5;" horiz-adv-x="556" 
d="M182 33l-1 -1q7 -42 7 -125v-103l-135 -40v728h135v-270q0 -110 98 -110q43 0 64.5 25.5t21.5 66.5v288h135v-300q0 -92 -54.5 -147t-147.5 -55q-74 0 -123 43z" />
    <glyph glyph-name="paragraph" unicode="&#xb6;" horiz-adv-x="699" 
d="M583 606v-731h-121v731h-72v-731h-124v400q-102 1 -166.5 60.5t-64.5 151.5q0 98 67.5 158.5t176.5 60.5h388l-10 -100h-74z" />
    <glyph glyph-name="periodcentered" unicode="&#xb7;" horiz-adv-x="249" 
d="M199 425v-149h-84q-37 0 -51 9.5t-14 36.5v103h149z" />
    <glyph glyph-name="cedilla" unicode="&#xb8;" 
d="M149 -115l21 119h77l-13 -73l13 12q9 8 29 8h12q38 0 63 -25t25 -67q0 -54 -39 -84.5t-108 -30.5h-2q-83 0 -133 41l33 58q43 -26 91 -26h1q58 0 58 34q0 30 -49 30q-28 0 -65 -9z" />
    <glyph glyph-name="onesuperior" unicode="&#xb9;" horiz-adv-x="400" 
d="M69 575l-15 78q75 26 131 53h88v-317h95l-11 -90h-303v90h107v207h-1l-20 -11q-22 -10 -42 -10h-29z" />
    <glyph glyph-name="ordmasculine" unicode="&#xba;" horiz-adv-x="422" 
d="M211 263q-80 0 -137.5 56t-57.5 136v2q0 80 57.5 135.5t137.5 55.5t137.5 -55.5t57.5 -135.5v-2q0 -80 -57.5 -136t-137.5 -56zM213 544h-4q-33 0 -55 -24t-22 -62v-4q0 -37 22 -60t55 -23h4q33 0 55 23t22 60v4q0 38 -22 62t-55 24z" />
    <glyph glyph-name="guillemotright" unicode="&#xbb;" horiz-adv-x="716" 
d="M374 99l160 149v5l-169 150l82 75l234 -197v-58l-227 -203zM54 99l160 149v5l-169 150l82 75l234 -197v-58l-227 -203z" />
    <glyph glyph-name="onequarter" unicode="&#xbc;" horiz-adv-x="949" 
d="M573 89h158q17 0 29 11l13 15v-115h116v270h-116v-102h-95l134 239h-118l-147 -279zM745 706l-351 -706h-130l351 706h130zM69 575l-15 78q75 26 131 53h88v-317h95l-11 -90h-303v90h107v207h-1l-20 -11q-22 -10 -42 -10h-29z" />
    <glyph glyph-name="onehalf" unicode="&#xbd;" horiz-adv-x="991" 
d="M745 706l-351 -706h-130l351 706h130zM69 575l-15 78q75 26 131 53h88v-317h95l-11 -90h-303v90h107v207h-1l-20 -11q-22 -10 -42 -10h-29zM766 90v4q0 6 9.5 13t34.5 22.5t41 26.5q58 38 79.5 67.5t21.5 69.5q0 51 -42.5 85.5t-110.5 34.5h-3q-133 0 -177 -121l98 -19
q20 47 74 47h1q17 0 30 -10t13 -27q0 -16 -14.5 -29t-59.5 -43q-10 -7 -15 -10q-62 -42 -84 -72t-22 -72v-40l17 -17h278l17 90h-186z" />
    <glyph glyph-name="threequarters" unicode="&#xbe;" horiz-adv-x="972" 
d="M596 89h158q17 0 29 11l13 15v-115h116v270h-116v-102h-95l134 239h-118l-147 -279zM758 706l-351 -706h-130l351 706h130zM382 668l-19 38h-299v-90h149l-83 -95l12 -39h61q64 0 64 -44q0 -25 -20 -38t-48 -13h-3q-51 0 -90 44l-76 -55q24 -37 70.5 -60t102.5 -23h3
q77 0 127.5 39.5t50.5 104.5q0 50 -28 80.5t-83 33.5z" />
    <glyph glyph-name="questiondown" unicode="&#xbf;" horiz-adv-x="515" 
d="M247 281h108q7 -34 7 -62q-1 -42 -25.5 -74.5t-83.5 -75.5q-38 -29 -54 -50t-16 -50q0 -27 22.5 -46.5t70.5 -19.5h3q86 0 145 73l86 -80q-43 -56 -106 -88t-134 -32h-3q-107 0 -167 53.5t-60 131.5q0 40 18.5 73.5t35.5 48.5t59 46q7 5 10 8q50 38 69 68t15 76zM234 357
v135h70q34 0 47 -9t13 -34v-92h-130z" />
    <glyph glyph-name="Agrave" unicode="&#xc0;" horiz-adv-x="705" 
d="M348 493l-92 -235h187l-93 235h-2zM398 716l299 -716h-151l-56 141h-282l-55 -141h-145l280 683zM468 836l-28 -81l-223 46q-24 5 -30.5 18t2.5 41l26 75z" />
    <glyph glyph-name="Aacute" unicode="&#xc1;" horiz-adv-x="705" 
d="M348 493l-92 -235h187l-93 235h-2zM398 716l299 -716h-151l-56 141h-282l-55 -141h-145l280 683zM253 755l-28 81l253 99l26 -75q9 -28 2.5 -41t-30.5 -18z" />
    <glyph glyph-name="Acircumflex" unicode="&#xc2;" horiz-adv-x="705" 
d="M348 493l-92 -235h187l-93 235h-2zM398 716l299 -716h-151l-56 141h-282l-55 -141h-145l280 683zM357 838h-7l-74 -85l-96 33l118 151h71q25 0 38 -6t26 -24l92 -121l-96 -32z" />
    <glyph glyph-name="Atilde" unicode="&#xc3;" horiz-adv-x="705" 
d="M348 493l-92 -235h187l-93 235h-2zM398 716l299 -716h-151l-56 141h-282l-55 -141h-145l280 683zM552 867q-57 -105 -128 -105q-35 0 -68 19l-20 12q-34 20 -55 20q-38 0 -62 -44l-67 45q52 105 137 105q37 0 72 -22l19 -12q32 -19 44 -19q32 0 63 47z" />
    <glyph glyph-name="Adieresis" unicode="&#xc4;" horiz-adv-x="705" 
d="M348 493l-92 -235h187l-93 235h-2zM398 716l299 -716h-151l-56 141h-282l-55 -141h-145l280 683zM313 922v-125h-71q-31 0 -42.5 8t-11.5 30v87h125zM517 922v-125h-71q-31 0 -42.5 8t-11.5 30v87h125z" />
    <glyph glyph-name="Aring" unicode="&#xc5;" horiz-adv-x="705" 
d="M456 756q0 -51 -43 -82l284 -674h-151l-56 140h-282l-55 -140h-145l273 668q-51 31 -51 88v1q0 44 33.5 74t79.5 30t79.5 -30t33.5 -74v-1zM348 491l-92 -233h187l-93 233h-2zM344 795h-2q-15 0 -26 -10.5t-11 -26.5v-3q0 -16 11 -26.5t26 -10.5h2q15 0 26 10.5t11 26.5
v3q0 16 -11 26.5t-26 10.5z" />
    <glyph glyph-name="AE" unicode="&#xc6;" horiz-adv-x="977" 
d="M607 377l23 25q18 19 49 19h187v-116h-259v-185h342l-20 -120h-462v140h-235l-74 -140h-150l375 706h559l-20 -120h-315v-209zM457 568l-166 -310h176v310h-10z" />
    <glyph glyph-name="Ccedilla" unicode="&#xc7;" horiz-adv-x="727" 
d="M565 237l128 -41q-85 -192 -289 -205l-10 -60l13 12q9 8 29 8h12q38 0 63 -25t25 -67q0 -54 -39 -84.5t-108 -30.5h-2q-83 0 -133 41l33 58q43 -26 91 -26h1q58 0 58 34q0 30 -49 30q-28 0 -65 -9l-14 13l19 108q-132 17 -209 115.5t-77 242.5v6q0 158 96 258.5
t251 100.5q106 0 185 -54t116 -150l-136 -42q-23 55 -67 85t-101 30q-90 0 -145 -61.5t-55 -165.5v-4q0 -105 54 -168t144 -63q65 0 107.5 29t73.5 85z" />
    <glyph glyph-name="Egrave" unicode="&#xc8;" horiz-adv-x="582" 
d="M209 377l23 25q18 19 49 19h195v-115h-267v-187h337l-20 -119h-457v706h475l-20 -119h-315v-210zM436 836l-28 -81l-223 46q-24 5 -30.5 18t2.5 41l26 75z" />
    <glyph glyph-name="Eacute" unicode="&#xc9;" horiz-adv-x="582" 
d="M209 377l23 25q18 19 49 19h195v-115h-267v-187h337l-20 -119h-457v706h475l-20 -119h-315v-210zM213 755l-28 81l253 99l26 -75q9 -28 2.5 -41t-30.5 -18z" />
    <glyph glyph-name="Ecircumflex" unicode="&#xca;" horiz-adv-x="582" 
d="M209 377l23 25q18 19 49 19h195v-115h-267v-187h337l-20 -119h-457v706h475l-20 -119h-315v-210zM325 838h-7l-74 -85l-96 33l118 151h71q25 0 38 -6t26 -24l92 -121l-96 -32z" />
    <glyph glyph-name="Edieresis" unicode="&#xcb;" horiz-adv-x="582" 
d="M209 377l23 25q18 19 49 19h195v-115h-267v-187h337l-20 -119h-457v706h475l-20 -119h-315v-210zM274 922v-125h-71q-31 0 -42.5 8t-11.5 30v87h125zM478 922v-125h-71q-31 0 -42.5 8t-11.5 30v87h125z" />
    <glyph glyph-name="Igrave" unicode="&#xcc;" horiz-adv-x="284" 
d="M212 716v-716h-140v675zM261 836l-28 -81l-223 46q-24 5 -30.5 18t2.5 41l26 75z" />
    <glyph glyph-name="Iacute" unicode="&#xcd;" horiz-adv-x="284" 
d="M212 716v-716h-140v675zM54 755l-28 81l253 99l26 -75q9 -28 2.5 -41t-30.5 -18z" />
    <glyph glyph-name="Icircumflex" unicode="&#xce;" horiz-adv-x="284" 
d="M212 716v-716h-140v675zM147 838h-7l-74 -85l-96 33l118 151h71q25 0 38 -6t26 -24l92 -121l-96 -32z" />
    <glyph glyph-name="Idieresis" unicode="&#xcf;" horiz-adv-x="284" 
d="M212 716v-716h-140v675zM105 922v-125h-71q-31 0 -42.5 8t-11.5 30v87h125zM309 922v-125h-71q-31 0 -42.5 8t-11.5 30v87h125z" />
    <glyph glyph-name="Eth" unicode="&#xd0;" horiz-adv-x="755" 
d="M713 360v-14q0 -167 -109 -264q-94 -82 -269 -82h-237v302h-44q-31 0 -42.5 8t-11.5 30v79h98v287h237q175 0 269 -82q109 -97 109 -264zM569 346v14q0 111 -59 167q-54 51 -161 51h-111v-159h157v-117h-157v-174h111q107 0 161 51q59 56 59 167z" />
    <glyph glyph-name="Ntilde" unicode="&#xd1;" horiz-adv-x="736" 
d="M529 267l-385 439h-75v-706h138v439l385 -439h75v706h-138v-439zM565 867q-57 -105 -128 -105q-35 0 -68 19l-20 12q-34 20 -55 20q-38 0 -62 -44l-67 45q52 105 137 105q37 0 72 -22l19 -12q32 -19 44 -19q32 0 63 47z" />
    <glyph glyph-name="Ograve" unicode="&#xd2;" horiz-adv-x="780" 
d="M594 359v-12q0 -92 -55.5 -158.5t-146.5 -66.5h-4q-92 1 -147 67.5t-55 157.5v12q0 91 55 157.5t147 67.5h4q91 0 146.5 -66.5t55.5 -158.5zM738 347v12q0 152 -99 254.5t-247 102.5h-4q-148 0 -247 -102.5t-99 -254.5v-12q0 -152 99 -254.5t247 -102.5h4
q148 0 247 102.5t99 254.5zM513 836l-28 -81l-223 46q-24 5 -30.5 18t2.5 41l26 75z" />
    <glyph glyph-name="Oacute" unicode="&#xd3;" horiz-adv-x="780" 
d="M594 359v-12q0 -92 -55.5 -158.5t-146.5 -66.5h-4q-92 1 -147 67.5t-55 157.5v12q0 91 55 157.5t147 67.5h4q91 0 146.5 -66.5t55.5 -158.5zM738 347v12q0 152 -99 254.5t-247 102.5h-4q-148 0 -247 -102.5t-99 -254.5v-12q0 -152 99 -254.5t247 -102.5h4
q148 0 247 102.5t99 254.5zM288 755l-28 81l253 99l26 -75q9 -28 2.5 -41t-30.5 -18z" />
    <glyph glyph-name="Ocircumflex" unicode="&#xd4;" horiz-adv-x="780" 
d="M594 359v-12q0 -92 -55.5 -158.5t-146.5 -66.5h-4q-92 1 -147 67.5t-55 157.5v12q0 91 55 157.5t147 67.5h4q91 0 146.5 -66.5t55.5 -158.5zM738 347v12q0 152 -99 254.5t-247 102.5h-4q-148 0 -247 -102.5t-99 -254.5v-12q0 -152 99 -254.5t247 -102.5h4
q148 0 247 102.5t99 254.5zM394 838h-7l-74 -85l-96 33l118 151h71q25 0 38 -6t26 -24l92 -121l-96 -32z" />
    <glyph glyph-name="Otilde" unicode="&#xd5;" horiz-adv-x="780" 
d="M594 359v-12q0 -92 -55.5 -158.5t-146.5 -66.5h-4q-92 1 -147 67.5t-55 157.5v12q0 91 55 157.5t147 67.5h4q91 0 146.5 -66.5t55.5 -158.5zM738 347v12q0 152 -99 254.5t-247 102.5h-4q-148 0 -247 -102.5t-99 -254.5v-12q0 -152 99 -254.5t247 -102.5h4
q148 0 247 102.5t99 254.5zM590 867q-57 -105 -128 -105q-35 0 -68 19l-20 12q-34 20 -55 20q-38 0 -62 -44l-67 45q52 105 137 105q37 0 72 -22l19 -12q32 -19 44 -19q32 0 63 47z" />
    <glyph glyph-name="Odieresis" unicode="&#xd6;" horiz-adv-x="780" 
d="M594 347v12q0 92 -55.5 158.5t-146.5 66.5h-4q-92 -1 -147 -67.5t-55 -157.5v-12q0 -91 55 -157.5t147 -67.5h4q91 0 146.5 66.5t55.5 158.5zM738 359v-12q0 -152 -99 -254.5t-247 -102.5h-4q-148 0 -247 102.5t-99 254.5v12q0 152 99 254.5t247 102.5h4
q148 0 247 -102.5t99 -254.5zM350 922v-125h-71q-31 0 -42.5 8t-11.5 30v87h125zM554 922v-125h-71q-31 0 -42.5 8t-11.5 30v87h125z" />
    <glyph glyph-name="multiply" unicode="&#xd7;" horiz-adv-x="590" 
d="M512 170l-90 -84l-128 125l-128 -126l-86 89l129 127l-131 129l88 86l128 -126l130 127l85 -88l-129 -128z" />
    <glyph glyph-name="Oslash" unicode="&#xd8;" horiz-adv-x="780" 
d="M737 359v-12q0 -152 -98.5 -254.5t-246.5 -102.5h-4q-120 0 -209 69l-72 -74l-82 77l77 79q-59 90 -59 206v12q0 152 99 254.5t246 102.5h4q115 0 206 -67l68 70l83 -77l-74 -75q62 -92 62 -208zM594 347v12q0 51 -21 103l-298 -305q49 -35 113 -35h4q91 0 146.5 66.5
t55.5 158.5zM186 347q0 -55 19 -100l297 304q-47 33 -110 33h-4q-92 -1 -147 -67.5t-55 -157.5v-12z" />
    <glyph glyph-name="Ugrave" unicode="&#xd9;" horiz-adv-x="696" 
d="M636 716v-436q0 -133 -66 -207q-74 -83 -220 -83h-4q-146 0 -220 83q-66 74 -66 207v395l140 41v-438q0 -82 39 -120q38 -38 107 -38h4q69 0 107 38q39 38 39 120v397zM471 836l-28 -81l-223 46q-24 5 -30.5 18t2.5 41l26 75z" />
    <glyph glyph-name="Uacute" unicode="&#xda;" horiz-adv-x="696" 
d="M636 716v-436q0 -133 -66 -207q-74 -83 -220 -83h-4q-146 0 -220 83q-66 74 -66 207v395l140 41v-438q0 -82 39 -120q38 -38 107 -38h4q69 0 107 38q39 38 39 120v397zM277 755l-28 81l253 99l26 -75q9 -28 2.5 -41t-30.5 -18z" />
    <glyph glyph-name="Ucircumflex" unicode="&#xdb;" horiz-adv-x="696" 
d="M636 716v-436q0 -133 -66 -207q-74 -83 -220 -83h-4q-146 0 -220 83q-66 74 -66 207v395l140 41v-438q0 -82 39 -120q38 -38 107 -38h4q69 0 107 38q39 38 39 120v397zM359 838h-7l-74 -85l-96 33l118 151h71q25 0 38 -6t26 -24l92 -121l-96 -32z" />
    <glyph glyph-name="Udieresis" unicode="&#xdc;" horiz-adv-x="696" 
d="M636 716v-436q0 -133 -66 -207q-74 -83 -220 -83h-4q-146 0 -220 83q-66 74 -66 207v395l140 41v-438q0 -82 39 -120q38 -38 107 -38h4q69 0 107 38q39 38 39 120v397zM311 922v-125h-71q-31 0 -42.5 8t-11.5 30v87h125zM515 922v-125h-71q-31 0 -42.5 8t-11.5 30v87h125
z" />
    <glyph glyph-name="Yacute" unicode="&#xdd;" horiz-adv-x="625" 
d="M382 0v292l233 414h-155l-79 -154q-36 -69 -66 -136h-2l-67 136l-79 154h-157l232 -414v-292h140zM225 755l-28 81l253 99l26 -75q9 -28 2.5 -41t-30.5 -18z" />
    <glyph glyph-name="Thorn" unicode="&#xde;" horiz-adv-x="613" 
d="M209 716v-131h84q129 0 198 -42q43 -26 70 -74.5t27 -112.5q0 -105 -68 -174.5t-202 -69.5h-37q-31 0 -49 19l-23 25v-156h-140v675zM311 462h-102v-227h106q69 0 99.5 29t30.5 88q0 57 -33.5 83.5t-100.5 26.5z" />
    <glyph glyph-name="germandbls" unicode="&#xdf;" horiz-adv-x="638" 
d="M257 369l52 30q32 20 47.5 31.5t32 36.5t16.5 55q0 32 -25.5 54.5t-69.5 22.5q-57 0 -92.5 -37t-35.5 -108v-454h-134v460q0 127 74.5 191.5t191.5 64.5q105 0 166 -51.5t61 -129.5q0 -44 -23 -84t-62 -61v-4q71 -5 115.5 -54.5t44.5 -125.5q0 -94 -59.5 -155.5
t-163.5 -61.5q-101 0 -178 66l51 88q57 -35 115 -35q42 0 69.5 27.5t27.5 70.5q0 56 -40.5 81t-102.5 25h-58z" />
    <glyph glyph-name="agrave" unicode="&#xe0;" horiz-adv-x="583" 
d="M166 244v3q0 63 37 100q32 32 87 32q44 0 78 -30q27 -24 27 -77v-105q0 -11 -11 -18l-35 -19q-32 -17 -67 -17h-1q-53 0 -84 37.5t-31 93.5zM530 7v483l-15 4l-85 -56q-55 64 -154 64q-102 0 -175 -75t-73 -179v-5q0 -106 68 -179.5t171 -73.5q55 0 106 33l43 28l44 -51z
M411 622l-35 -79l-218 66q-23 7 -28.5 20.5t5.5 39.5l32 73z" />
    <glyph glyph-name="aacute" unicode="&#xe1;" horiz-adv-x="583" 
d="M166 244v3q0 63 37 100q32 32 87 32q44 0 78 -30q27 -24 27 -77v-105q0 -11 -11 -18l-35 -19q-32 -17 -67 -17h-1q-53 0 -84 37.5t-31 93.5zM530 7v483l-15 4l-85 -56q-55 64 -154 64q-102 0 -175 -75t-73 -179v-5q0 -106 68 -179.5t171 -73.5q55 0 106 33l43 28l44 -51z
M210 543l-35 79l244 120l32 -73q11 -26 5.5 -39.5t-28.5 -20.5z" />
    <glyph glyph-name="acircumflex" unicode="&#xe2;" horiz-adv-x="583" 
d="M166 244v3q0 63 37 100q32 32 87 32q44 0 78 -30q27 -24 27 -77v-105q0 -11 -11 -18l-35 -19q-32 -17 -67 -17h-1q-53 0 -84 37.5t-31 93.5zM530 7v483l-15 4l-85 -56q-55 64 -154 64q-102 0 -175 -75t-73 -179v-5q0 -106 68 -179.5t171 -73.5q55 0 106 33l43 28l44 -51z
M288 626h-7l-74 -85l-96 33l118 151h71q25 0 38 -6t26 -24l92 -121l-96 -32z" />
    <glyph glyph-name="atilde" unicode="&#xe3;" horiz-adv-x="583" 
d="M166 244v3q0 63 37 100q32 32 87 32q44 0 78 -30q27 -24 27 -77v-105q0 -11 -11 -18l-35 -19q-32 -17 -67 -17h-1q-53 0 -84 37.5t-31 93.5zM530 7v483l-15 4l-85 -56q-55 64 -154 64q-102 0 -175 -75t-73 -179v-5q0 -106 68 -179.5t171 -73.5q55 0 106 33l43 28l44 -51z
M492 670q-57 -105 -128 -105q-35 0 -68 19l-20 12q-34 20 -55 20q-38 0 -62 -44l-67 45q52 105 137 105q37 0 72 -22l19 -12q32 -19 44 -19q32 0 63 47z" />
    <glyph glyph-name="adieresis" unicode="&#xe4;" horiz-adv-x="583" 
d="M166 247v-3q0 -56 31 -93.5t84 -37.5h1q35 0 67 17l35 19q11 7 11 18v105q0 53 -27 77q-34 30 -78 30q-55 0 -87 -32q-37 -37 -37 -100zM530 490v-483l-70 -7l-44 51l-43 -28q-51 -33 -106 -33q-103 0 -171 73.5t-68 179.5v5q0 104 73 179t175 75q99 0 154 -64l85 56z
M250 690v-125h-71q-31 0 -42.5 8t-11.5 30v87h125zM454 690v-125h-71q-31 0 -42.5 8t-11.5 30v87h125z" />
    <glyph glyph-name="aring" unicode="&#xe5;" horiz-adv-x="583" 
d="M166 247v-3q0 -56 31 -93.5t84 -37.5h1q35 0 67 17l35 19q11 7 11 18v105q0 53 -27 77q-34 30 -78 30q-55 0 -87 -32q-37 -37 -37 -100zM530 490v-483l-70 -7l-44 51l-43 -28q-51 -33 -106 -33q-103 0 -171 73.5t-68 179.5v5q0 104 73 179t175 75q99 0 154 -64l85 56z
M291 549q-46 0 -79.5 31t-33.5 75v1q0 44 33.5 74t79.5 30t79.5 -30t33.5 -74v-1q0 -44 -33.5 -75t-79.5 -31zM292 694h-2q-15 0 -26 -10.5t-11 -26.5v-3q0 -16 11 -26.5t26 -10.5h2q15 0 26 10.5t11 26.5v3q0 16 -11 26.5t-26 10.5z" />
    <glyph glyph-name="ae" unicode="&#xe6;" horiz-adv-x="891" 
d="M821 207h-315q10 -39 40 -68t88 -29q70 0 152 54l59 -81q-42 -44 -102 -68.5t-124 -24.5q-53 0 -107 22.5t-85 56.5q-65 -79 -193 -79q-87 0 -144 40.5t-57 119.5v5q0 72 58 110.5t156 38.5q30 0 116 -7v13q0 36 -26 58t-77 22q-90 0 -151 -36l-39 93q97 55 190 55
q136 0 186 -78q68 78 180 78h1q108 0 172.5 -69t64.5 -176v-7zM171 154v-3q0 -24 23 -40.5t63 -16.5h1q84 0 127 46q-12 27 -17 64q-33 3 -110 3q-45 0 -66 -15t-21 -38zM727 297q-11 41 -39 65t-68 24q-71 0 -102 -62q-6 -12 -11 -30q33 6 75 6h76q40 0 69 -3z" />
    <glyph glyph-name="ccedilla" unicode="&#xe7;" horiz-adv-x="517" 
d="M28 244v4q0 107 72.5 180.5t171.5 73.5q130 0 218 -98l-62 -84q-46 34 -76 47.5t-66 13.5q-55 0 -87.5 -36.5t-32.5 -98.5q0 -63 31.5 -98.5t87.5 -35.5q62 0 147 57l59 -81q-78 -86 -198 -97l-10 -60l13 12q9 8 29 8h12q38 0 63 -25t25 -67q0 -54 -39 -84.5t-108 -30.5
h-2q-83 0 -133 41l33 58q43 -26 91 -26h1q58 0 58 34q0 30 -49 30q-27 0 -65 -9l-14 13l19 110q-86 18 -137.5 87t-51.5 162z" />
    <glyph glyph-name="egrave" unicode="&#xe8;" horiz-adv-x="554" 
d="M169 207h315l43 43v7q0 105 -68.5 175t-174.5 70h-1q-107 0 -181 -74t-74 -183v-3q0 -109 74 -180.5t180 -71.5q64 0 124 24.5t102 68.5l-59 81q-82 -54 -152 -54q-58 0 -88 29t-40 68zM390 297q-28 3 -69 3h-76q-42 0 -75 -6q5 18 11 30q31 62 100 62q41 0 69.5 -23.5
t39.5 -65.5zM412 622l-35 -79l-218 66q-23 7 -28.5 20.5t5.5 39.5l32 73z" />
    <glyph glyph-name="eacute" unicode="&#xe9;" horiz-adv-x="554" 
d="M169 207h315l43 43v7q0 105 -68.5 175t-174.5 70h-1q-107 0 -181 -74t-74 -183v-3q0 -109 74 -180.5t180 -71.5q64 0 124 24.5t102 68.5l-59 81q-82 -54 -152 -54q-58 0 -88 29t-40 68zM390 297q-28 3 -69 3h-76q-42 0 -75 -6q5 18 11 30q31 62 100 62q41 0 69.5 -23.5
t39.5 -65.5zM194 543l-35 79l244 120l32 -73q11 -26 5.5 -39.5t-28.5 -20.5z" />
    <glyph glyph-name="ecircumflex" unicode="&#xea;" horiz-adv-x="554" 
d="M169 207h315l43 43v7q0 105 -68.5 175t-174.5 70h-1q-107 0 -181 -74t-74 -183v-3q0 -109 74 -180.5t180 -71.5q64 0 124 24.5t102 68.5l-59 81q-82 -54 -152 -54q-58 0 -88 29t-40 68zM390 297q-28 3 -69 3h-76q-42 0 -75 -6q5 18 11 30q31 62 100 62q41 0 69.5 -23.5
t39.5 -65.5zM284 626h-7l-74 -85l-96 33l118 151h71q25 0 38 -6t26 -24l92 -121l-96 -32z" />
    <glyph glyph-name="edieresis" unicode="&#xeb;" horiz-adv-x="554" 
d="M484 207h-315q10 -39 40 -68t88 -29q70 0 152 54l59 -81q-42 -44 -102 -68.5t-124 -24.5q-106 0 -180 71.5t-74 180.5v3q0 109 74 183t181 74h1q106 0 174.5 -70t68.5 -175v-7zM390 297q-11 42 -39.5 65.5t-69.5 23.5q-69 0 -100 -62q-6 -12 -11 -30q33 6 75 6h76
q41 0 69 -3zM241 690v-125h-71q-31 0 -42.5 8t-11.5 30v87h125zM445 690v-125h-71q-31 0 -42.5 8t-11.5 30v87h125z" />
    <glyph glyph-name="igrave" unicode="&#xec;" horiz-adv-x="275" 
d="M85 386v-386h135v492h-220v-110h14q33 0 70 5zM263 622l-35 -79l-218 66q-23 7 -28.5 20.5t5.5 39.5l32 73z" />
    <glyph glyph-name="iacute" unicode="&#xed;" horiz-adv-x="275" 
d="M85 386v-386h135v492h-220v-110h14q33 0 70 5zM54 543l-35 79l244 120l32 -73q11 -26 5.5 -39.5t-28.5 -20.5z" />
    <glyph glyph-name="icircumflex" unicode="&#xee;" horiz-adv-x="275" 
d="M85 386v-386h135v492h-220v-110h14q33 0 70 5zM141 626h-7l-74 -85l-96 33l118 151h71q25 0 38 -6t26 -24l92 -121l-96 -32z" />
    <glyph glyph-name="idieresis" unicode="&#xef;" horiz-adv-x="275" 
d="M85 0v386l-1 1q-37 -5 -70 -5h-14v110h220v-492h-135zM98 690v-125h-71q-31 0 -42.5 8t-11.5 30v87h125zM302 690v-125h-71q-31 0 -42.5 8t-11.5 30v87h125z" />
    <glyph glyph-name="eth" unicode="&#xf0;" horiz-adv-x="577" 
d="M221 516l-44 33l46 61q-35 15 -86 28l68 79q45 -6 84 -19l49 64l75 -56l-36 -48q172 -106 172 -347q0 -156 -72.5 -238.5t-199.5 -82.5q-110 0 -179.5 66t-69.5 177q0 98 65 166.5t164 68.5q63 0 111 -26l28 -15q-9 77 -90 137l-27 -36q-13 -18 -24.5 -21t-33.5 9z
M402 295q-47 53 -121 53q-52 0 -82.5 -34t-30.5 -82q0 -55 30 -88t81 -33q62 0 94 51t29 133z" />
    <glyph glyph-name="ntilde" unicode="&#xf1;" horiz-adv-x="558" 
d="M155 436l-33 56l-69 -10v-482h135v329q0 13 11 18l23 12q39 21 72 21q37 0 57 -22q23 -25 23 -70v-288h135v300q0 92 -52 146q-53 56 -140 56q-64 0 -128 -43zM488 670q-57 -105 -128 -105q-35 0 -68 19l-20 12q-34 20 -55 20q-38 0 -62 -44l-67 45q52 105 137 105
q37 0 72 -22l19 -12q32 -19 44 -19q32 0 63 47z" />
    <glyph glyph-name="ograve" unicode="&#xf2;" horiz-adv-x="567" 
d="M28 247v-2q0 -107 75 -181t180 -74h1q105 0 180 74t75 181v2q0 107 -75 181t-180 74h-1q-105 0 -180 -74t-75 -181zM166 243v6q0 57 32.5 92.5t82.5 35.5h5q50 0 82.5 -35.5t32.5 -92.5v-6q0 -57 -32.5 -92.5t-82.5 -35.5h-5q-50 0 -82.5 35.5t-32.5 92.5zM412 622
l-35 -79l-218 66q-23 7 -28.5 20.5t5.5 39.5l32 73z" />
    <glyph glyph-name="oacute" unicode="&#xf3;" horiz-adv-x="567" 
d="M28 247v-2q0 -107 75 -181t180 -74h1q105 0 180 74t75 181v2q0 107 -75 181t-180 74h-1q-105 0 -180 -74t-75 -181zM166 243v6q0 57 32.5 92.5t82.5 35.5h5q50 0 82.5 -35.5t32.5 -92.5v-6q0 -57 -32.5 -92.5t-82.5 -35.5h-5q-50 0 -82.5 35.5t-32.5 92.5zM196 543
l-35 79l244 120l32 -73q11 -26 5.5 -39.5t-28.5 -20.5z" />
    <glyph glyph-name="ocircumflex" unicode="&#xf4;" horiz-adv-x="567" 
d="M28 247v-2q0 -107 75 -181t180 -74h1q105 0 180 74t75 181v2q0 107 -75 181t-180 74h-1q-105 0 -180 -74t-75 -181zM166 243v6q0 57 32.5 92.5t82.5 35.5h5q50 0 82.5 -35.5t32.5 -92.5v-6q0 -57 -32.5 -92.5t-82.5 -35.5h-5q-50 0 -82.5 35.5t-32.5 92.5zM289 626h-7
l-74 -85l-96 33l118 151h71q25 0 38 -6t26 -24l92 -121l-96 -32z" />
    <glyph glyph-name="otilde" unicode="&#xf5;" horiz-adv-x="567" 
d="M28 247v-2q0 -107 75 -181t180 -74h1q105 0 180 74t75 181v2q0 107 -75 181t-180 74h-1q-105 0 -180 -74t-75 -181zM166 243v6q0 57 32.5 92.5t82.5 35.5h5q50 0 82.5 -35.5t32.5 -92.5v-6q0 -57 -32.5 -92.5t-82.5 -35.5h-5q-50 0 -82.5 35.5t-32.5 92.5zM483 670
q-57 -105 -128 -105q-35 0 -68 19l-20 12q-34 20 -55 20q-38 0 -62 -44l-67 45q52 105 137 105q37 0 72 -22l19 -12q32 -19 44 -19q32 0 63 47z" />
    <glyph glyph-name="odieresis" unicode="&#xf6;" horiz-adv-x="567" 
d="M28 245v2q0 107 75 181t180 74h1q105 0 180 -74t75 -181v-2q0 -107 -75 -181t-180 -74h-1q-105 0 -180 74t-75 181zM166 249v-6q0 -57 32.5 -92.5t82.5 -35.5h5q50 0 82.5 35.5t32.5 92.5v6q0 57 -32.5 92.5t-82.5 35.5h-5q-50 0 -82.5 -35.5t-32.5 -92.5zM244 690v-125
h-71q-31 0 -42.5 8t-11.5 30v87h125zM448 690v-125h-71q-31 0 -42.5 8t-11.5 30v87h125z" />
    <glyph glyph-name="divide" unicode="&#xf7;" horiz-adv-x="590" 
d="M545 256h-435q-37 0 -51 9.5t-14 36.5v70h500v-116zM355 577v-127h-72q-31 0 -43 8t-12 31v88h127zM355 178v-127h-72q-31 0 -43 8t-12 31v88h127z" />
    <glyph glyph-name="oslash" unicode="&#xf8;" horiz-adv-x="567" 
d="M28 245v2q0 107 75 181t180 74h1q80 0 147 -46l52 53l62 -57l-54 -55q48 -67 48 -150v-2q0 -107 -75 -181t-180 -74h-1q-84 0 -147 46l-48 -49l-60 57l49 50q-49 66 -49 151zM166 249v-6q0 -26 8 -50l167 170q-25 14 -55 14h-5q-50 0 -82.5 -35.5t-32.5 -92.5zM401 249
q0 25 -8 49l-167 -170q23 -13 55 -13h5q50 0 82.5 35.5t32.5 92.5v6z" />
    <glyph glyph-name="ugrave" unicode="&#xf9;" horiz-adv-x="556" 
d="M395 51l-27 -18q-65 -43 -127 -43q-87 0 -140 56q-52 54 -52 146v300h135v-288q0 -45 23 -70q20 -22 57 -22q30 0 70 21l23 12q11 5 11 18v329h135v-485l-70 -7zM387 622l-35 -79l-218 66q-23 7 -28.5 20.5t5.5 39.5l32 73z" />
    <glyph glyph-name="uacute" unicode="&#xfa;" horiz-adv-x="556" 
d="M395 51l-27 -18q-65 -43 -127 -43q-87 0 -140 56q-52 54 -52 146v300h135v-288q0 -45 23 -70q20 -22 57 -22q30 0 70 21l23 12q11 5 11 18v329h135v-485l-70 -7zM202 543l-35 79l244 120l32 -73q11 -26 5.5 -39.5t-28.5 -20.5z" />
    <glyph glyph-name="ucircumflex" unicode="&#xfb;" horiz-adv-x="556" 
d="M395 51l-27 -18q-65 -43 -127 -43q-87 0 -140 56q-52 54 -52 146v300h135v-288q0 -45 23 -70q20 -22 57 -22q30 0 70 21l23 12q11 5 11 18v329h135v-485l-70 -7zM282 626h-7l-74 -85l-96 33l118 151h71q25 0 38 -6t26 -24l92 -121l-96 -32z" />
    <glyph glyph-name="udieresis" unicode="&#xfc;" horiz-adv-x="556" 
d="M395 51l-27 -18q-65 -43 -127 -43q-87 0 -140 56q-52 54 -52 146v300h135v-288q0 -45 23 -70q20 -22 57 -22q30 0 70 21l23 12q11 5 11 18v329h135v-485l-70 -7zM238 690v-125h-71q-31 0 -42.5 8t-11.5 30v87h125zM442 690v-125h-71q-31 0 -42.5 8t-11.5 30v87h125z" />
    <glyph glyph-name="yacute" unicode="&#xfd;" horiz-adv-x="536" 
d="M142 492h-138l179 -430q44 -105 44 -134q0 -58 -64 -58q-31 0 -75 11l-23 -94q55 -29 129 -29q70 0 116 47t46 118q0 49 -19 93l195 476h-132l-82 -214q-32 -82 -43 -133h-1q-11 44 -50 143zM198 543l-35 79l244 120l32 -73q11 -26 5.5 -39.5t-28.5 -20.5z" />
    <glyph glyph-name="thorn" unicode="&#xfe;" horiz-adv-x="583" 
d="M318 502q101 -1 169 -74.5t68 -178.5v-5q0 -105 -69 -179.5t-171 -74.5q-77 0 -133 45l-1 -1q7 -42 7 -127v-103l-135 -40v905l135 40v-133q0 -84 -7 -126l1 -1l26 17q55 36 110 36zM417 247v3q0 55 -30.5 92t-84.5 37h-1q-35 0 -67 -17l-35 -19q-11 -7 -11 -13v-114
q0 -50 30 -77q29 -26 78 -26q52 0 84 32q37 37 37 102z" />
    <glyph glyph-name="ydieresis" unicode="&#xff;" horiz-adv-x="536" 
d="M4 492h138l82 -204q39 -99 50 -143h1q11 51 43 133l82 214h132l-195 -476q19 -44 19 -93q0 -71 -46 -118t-116 -47q-74 0 -129 29l23 94q44 -11 75 -11q64 0 64 58q0 29 -44 134zM233 690v-125h-71q-31 0 -42.5 8t-11.5 30v87h125zM437 690v-125h-71q-31 0 -42.5 8
t-11.5 30v87h125z" />
    <glyph glyph-name="Amacron" unicode="&#x100;" horiz-adv-x="705" 
d="M348 493l-92 -235h187l-93 235h-2zM398 716l299 -716h-151l-56 141h-282l-55 -141h-145l280 683zM524 878v-112h-290q-31 0 -42.5 8t-11.5 30v74h344z" />
    <glyph glyph-name="amacron" unicode="&#x101;" horiz-adv-x="583" 
d="M166 247v-3q0 -56 31 -93.5t84 -37.5h1q35 0 67 17l35 19q11 7 11 18v105q0 53 -27 77q-34 30 -78 30q-55 0 -87 -32q-37 -37 -37 -100zM530 490v-483l-70 -7l-44 51l-43 -28q-51 -33 -106 -33q-103 0 -171 73.5t-68 179.5v5q0 104 73 179t175 75q99 0 154 -64l85 56z
M457 690v-112h-290q-31 0 -42.5 8t-11.5 30v74h344z" />
    <glyph glyph-name="Abreve" unicode="&#x102;" horiz-adv-x="705" 
d="M348 493l-92 -235h187l-93 235h-2zM398 716l299 -716h-151l-56 141h-282l-55 -141h-145l280 683zM353 753h-1q-68 0 -118.5 38t-56.5 104l103 14q16 -59 72 -59h1q27 0 46 16t25 43l103 -14q-7 -66 -56.5 -104t-117.5 -38z" />
    <glyph glyph-name="abreve" unicode="&#x103;" horiz-adv-x="583" 
d="M166 247v-3q0 -56 31 -93.5t84 -37.5h1q35 0 67 17l35 19q11 7 11 18v105q0 53 -27 77q-34 30 -78 30q-55 0 -87 -32q-37 -37 -37 -100zM530 490v-483l-70 -7l-44 51l-43 -28q-51 -33 -106 -33q-103 0 -171 73.5t-68 179.5v5q0 104 73 179t175 75q99 0 154 -64l85 56z
M288 550h-1q-68 0 -118.5 38t-56.5 104l103 14q16 -59 72 -59h1q27 0 46 16t25 43l103 -14q-7 -66 -56.5 -104t-117.5 -38z" />
    <glyph glyph-name="Aogonek" unicode="&#x104;" horiz-adv-x="705" 
d="M396 716l301 -716q-60 -6 -94 -40.5t-34 -81.5q0 -20 11 -31t29 -11h1q25 0 43 10l7 -74q-30 -20 -89 -20h-2q-56 0 -88 32t-32 81q0 43 25 83.5t65 66.5l-49 125h-282l-55 -140h-145l279 683zM348 491l-92 -233h187l-93 233h-2z" />
    <glyph glyph-name="aogonek" unicode="&#x105;" horiz-adv-x="583" 
d="M530 490v-483q-72 -62 -72 -129q0 -20 11 -31t29 -11h1q25 0 43 10l7 -74q-30 -20 -89 -20h-2q-57 0 -88.5 30t-31.5 80q0 41 29.5 84.5t77.5 69.5l-29 35l-43 -28q-51 -33 -106 -33q-103 0 -171 73.5t-68 179.5v5q0 104 73 179t175 75q99 0 154 -64l85 56zM166 247v-3
q0 -56 31 -93.5t84 -37.5h1q35 0 67 17l35 19q11 7 11 18v105q0 53 -27 77q-34 30 -78 30q-55 0 -87 -32q-37 -37 -37 -100z" />
    <glyph glyph-name="Cacute" unicode="&#x106;" horiz-adv-x="727" 
d="M693 196l-128 41q-31 -56 -73.5 -85t-107.5 -29q-90 0 -144 63t-54 168v4q0 104 55 165.5t145 61.5q57 0 101 -30t67 -85l136 42q-37 96 -116 150t-185 54q-155 0 -251 -100.5t-96 -258.5v-6q0 -158 91 -259.5t245 -101.5q224 0 315 206zM288 755l-28 81l253 99l26 -75
q9 -28 2.5 -41t-30.5 -18z" />
    <glyph glyph-name="cacute" unicode="&#x107;" horiz-adv-x="517" 
d="M28 248v-4q0 -107 67.5 -180.5t174.5 -73.5q131 0 221 98l-59 81q-85 -57 -147 -57q-56 0 -87.5 35.5t-31.5 98.5q0 62 32.5 98.5t87.5 36.5q36 0 66 -13.5t76 -47.5l62 84q-88 98 -218 98q-99 0 -171.5 -73.5t-72.5 -180.5zM188 543l-35 79l244 120l32 -73
q11 -26 5.5 -39.5t-28.5 -20.5z" />
    <glyph glyph-name="Ccircumflex" unicode="&#x108;" horiz-adv-x="727" 
d="M693 196l-128 41q-31 -56 -73.5 -85t-107.5 -29q-90 0 -144 63t-54 168v4q0 104 55 165.5t145 61.5q57 0 101 -30t67 -85l136 42q-37 96 -116 150t-185 54q-155 0 -251 -100.5t-96 -258.5v-6q0 -158 91 -259.5t245 -101.5q224 0 315 206zM391 838h-7l-74 -85l-96 33
l118 151h71q25 0 38 -6t26 -24l92 -121l-96 -32z" />
    <glyph glyph-name="ccircumflex" unicode="&#x109;" horiz-adv-x="517" 
d="M28 248v-4q0 -107 67.5 -180.5t174.5 -73.5q131 0 221 98l-59 81q-85 -57 -147 -57q-56 0 -87.5 35.5t-31.5 98.5q0 62 32.5 98.5t87.5 36.5q36 0 66 -13.5t76 -47.5l62 84q-88 98 -218 98q-99 0 -171.5 -73.5t-72.5 -180.5zM277 626h-7l-74 -85l-96 33l118 151h71
q25 0 38 -6t26 -24l92 -121l-96 -32z" />
    <glyph glyph-name="Cdotaccent" unicode="&#x10a;" horiz-adv-x="727" 
d="M565 237l128 -41q-91 -206 -315 -206q-154 0 -245 101.5t-91 259.5v6q0 158 96 258.5t251 100.5q106 0 185 -54t116 -150l-136 -42q-23 55 -67 85t-101 30q-90 0 -145 -61.5t-55 -165.5v-4q0 -105 54 -168t144 -63q65 0 107.5 29t73.5 85zM455 919v-145h-82
q-36 0 -49.5 9.5t-13.5 34.5v101h145z" />
    <glyph glyph-name="cdotaccent" unicode="&#x10b;" horiz-adv-x="517" 
d="M28 244v4q0 107 72.5 180.5t171.5 73.5q130 0 218 -98l-62 -84q-46 34 -76 47.5t-66 13.5q-55 0 -87.5 -36.5t-32.5 -98.5q0 -63 31.5 -98.5t87.5 -35.5q62 0 147 57l59 -81q-90 -98 -221 -98q-107 0 -174.5 73.5t-67.5 180.5zM341 701v-145h-82q-36 0 -49.5 9.5
t-13.5 34.5v101h145z" />
    <glyph glyph-name="Ccaron" unicode="&#x10c;" horiz-adv-x="727" 
d="M693 196l-128 41q-31 -56 -73.5 -85t-107.5 -29q-90 0 -144 63t-54 168v4q0 104 55 165.5t145 61.5q57 0 101 -30t67 -85l136 42q-37 96 -116 150t-185 54q-155 0 -251 -100.5t-96 -258.5v-6q0 -158 91 -259.5t245 -101.5q224 0 315 206zM373 859h7l74 85l94 -33
l-118 -151h-68q-43 0 -70 37l-89 114l98 32z" />
    <glyph glyph-name="ccaron" unicode="&#x10d;" horiz-adv-x="517" 
d="M28 248v-4q0 -107 67.5 -180.5t174.5 -73.5q131 0 221 98l-59 81q-85 -57 -147 -57q-56 0 -87.5 35.5t-31.5 98.5q0 62 32.5 98.5t87.5 36.5q36 0 66 -13.5t76 -47.5l62 84q-88 98 -218 98q-99 0 -171.5 -73.5t-72.5 -180.5zM268 648h7l74 85l94 -33l-118 -151h-68
q-43 0 -70 37l-89 114l98 32z" />
    <glyph glyph-name="Dcaron" unicode="&#x10e;" horiz-adv-x="726" 
d="M540 346v14q0 108 -62 167q-54 51 -161 51h-108v-450h108q107 0 161 51q62 59 62 167zM684 360v-14q0 -167 -109 -264q-94 -82 -270 -82h-236v706h236q176 0 270 -82q109 -97 109 -264zM340 859h7l74 85l94 -33l-118 -151h-68q-43 0 -70 37l-89 114l98 32z" />
    <glyph glyph-name="dcaron" unicode="&#x10f;" horiz-adv-x="686" 
d="M166 247v-3q0 -56 31 -93.5t84 -37.5h1q35 0 67 17l35 19q11 7 11 18v109q0 50 -30 77q-29 26 -78 26q-52 0 -84 -32q-37 -37 -37 -100zM395 676l135 40v-709l-68 -7l-41 53l-48 -30q-50 -33 -107 -33q-102 0 -170 73.5t-68 179.5v5q0 104 71.5 179t173.5 75
q72 0 127 -44l1 1q-6 36 -6 122v95zM714 716v-97q-3 -102 -80 -142l-47 45q49 28 53 75h-16q-21 0 -29 9t-8 29v81h127z" />
    <glyph glyph-name="Dcroat" unicode="&#x110;" horiz-adv-x="755" 
d="M713 360v-14q0 -167 -109 -264q-94 -82 -269 -82h-237v302h-44q-31 0 -42.5 8t-11.5 30v79h98v287h237q175 0 269 -82q109 -97 109 -264zM569 346v14q0 111 -59 167q-54 51 -161 51h-111v-159h157v-117h-157v-174h111q107 0 161 51q59 56 59 167z" />
    <glyph glyph-name="dcroat" unicode="&#x111;" horiz-adv-x="583" 
d="M395 669l135 40v-94h64v-77h-64v-531l-68 -7l-41 53l-48 -30q-50 -33 -107 -33q-102 0 -170 73.5t-68 179.5v5q0 104 71.5 179t173.5 75q72 0 127 -44l1 1q-6 30 -6 79h-34q-31 0 -42.5 8t-11.5 30v39h88v54zM166 247v-3q0 -56 31 -93.5t84 -37.5h1q35 0 67 17l35 19
q11 7 11 18v109q0 50 -30 77q-29 26 -78 26q-52 0 -84 -32q-37 -37 -37 -100z" />
    <glyph glyph-name="Emacron" unicode="&#x112;" horiz-adv-x="582" 
d="M209 377l23 25q18 19 49 19h195v-115h-267v-187h337l-20 -119h-457v706h475l-20 -119h-315v-210zM481 878v-112h-290q-31 0 -42.5 8t-11.5 30v74h344z" />
    <glyph glyph-name="emacron" unicode="&#x113;" horiz-adv-x="554" 
d="M484 207h-315q10 -39 40 -68t88 -29q70 0 152 54l59 -81q-42 -44 -102 -68.5t-124 -24.5q-106 0 -180 71.5t-74 180.5v3q0 109 74 183t181 74h1q106 0 174.5 -70t68.5 -175v-7zM390 297q-11 42 -39.5 65.5t-69.5 23.5q-69 0 -100 -62q-6 -12 -11 -30q33 6 75 6h76
q41 0 69 -3zM452 690v-112h-290q-31 0 -42.5 8t-11.5 30v74h344z" />
    <glyph glyph-name="Ebreve" unicode="&#x114;" horiz-adv-x="582" 
d="M209 377l23 25q18 19 49 19h195v-115h-267v-187h337l-20 -119h-457v706h475l-20 -119h-315v-210zM312 753h-1q-68 0 -118.5 38t-56.5 104l103 14q16 -59 72 -59h1q27 0 46 16t25 43l103 -14q-7 -66 -56.5 -104t-117.5 -38z" />
    <glyph glyph-name="ebreve" unicode="&#x115;" horiz-adv-x="554" 
d="M484 207h-315q10 -39 40 -68t88 -29q70 0 152 54l59 -81q-42 -44 -102 -68.5t-124 -24.5q-106 0 -180 71.5t-74 180.5v3q0 109 74 183t181 74h1q106 0 174.5 -70t68.5 -175v-7zM390 297q-11 42 -39.5 65.5t-69.5 23.5q-69 0 -100 -62q-6 -12 -11 -30q33 6 75 6h76
q41 0 69 -3zM284 550h-1q-68 0 -118.5 38t-56.5 104l103 14q16 -59 72 -59h1q27 0 46 16t25 43l103 -14q-7 -66 -56.5 -104t-117.5 -38z" />
    <glyph glyph-name="Edotaccent" unicode="&#x116;" horiz-adv-x="582" 
d="M209 377l23 25q18 19 49 19h195v-115h-267v-187h337l-20 -119h-457v706h475l-20 -119h-315v-210zM383 919v-145h-82q-36 0 -49.5 9.5t-13.5 34.5v101h145z" />
    <glyph glyph-name="edotaccent" unicode="&#x117;" horiz-adv-x="554" 
d="M484 207h-315q10 -39 40 -68t88 -29q70 0 152 54l59 -81q-42 -44 -102 -68.5t-124 -24.5q-106 0 -180 71.5t-74 180.5v3q0 109 74 183t181 74h1q106 0 174.5 -70t68.5 -175v-7zM390 297q-11 42 -39.5 65.5t-69.5 23.5q-69 0 -100 -62q-6 -12 -11 -30q33 6 75 6h76
q41 0 69 -3zM352 701v-145h-82q-36 0 -49.5 9.5t-13.5 34.5v101h145z" />
    <glyph glyph-name="Eogonek" unicode="&#x118;" horiz-adv-x="582" 
d="M428 0h-359v706h475l-20 -119h-315v-210l23 25q18 19 49 19h195v-115h-267v-187h337l-20 -119q-34 -26 -54 -59t-20 -63q0 -42 40 -42h1q25 0 43 10l7 -74q-30 -20 -89 -20h-2q-57 0 -88.5 29t-31.5 78q0 40 27 78.5t69 62.5z" />
    <glyph glyph-name="eogonek" unicode="&#x119;" horiz-adv-x="554" 
d="M484 207h-315q10 -39 40 -68t88 -29q70 0 152 54l59 -81q-30 -33 -37 -38q-42 -33 -67.5 -71.5t-25.5 -72.5q0 -42 39 -42h1q25 0 43 10l7 -74q-30 -20 -89 -20h-2q-56 0 -87.5 29t-31.5 73q0 32 21.5 66t58.5 57q-30 -10 -64 -10q-101 0 -173.5 72t-72.5 180v3
q0 109 74 183t181 74h1q106 0 174.5 -70t68.5 -175v-7zM390 297q-11 42 -39.5 65.5t-69.5 23.5q-69 0 -100 -62q-6 -12 -11 -30q33 6 75 6h76q41 0 69 -3z" />
    <glyph glyph-name="Ecaron" unicode="&#x11a;" horiz-adv-x="582" 
d="M209 377l23 25q18 19 49 19h195v-115h-267v-187h337l-20 -119h-457v706h475l-20 -119h-315v-210zM314 859h7l74 85l94 -33l-118 -151h-68q-43 0 -70 37l-89 114l98 32z" />
    <glyph glyph-name="ecaron" unicode="&#x11b;" horiz-adv-x="554" 
d="M169 207h315l43 43v7q0 105 -68.5 175t-174.5 70h-1q-107 0 -181 -74t-74 -183v-3q0 -109 74 -180.5t180 -71.5q64 0 124 24.5t102 68.5l-59 81q-82 -54 -152 -54q-58 0 -88 29t-40 68zM390 297q-28 3 -69 3h-76q-42 0 -75 -6q5 18 11 30q31 62 100 62q41 0 69.5 -23.5
t39.5 -65.5zM277 648h7l74 85l94 -33l-118 -151h-68q-43 0 -70 37l-89 114l98 32z" />
    <glyph glyph-name="Gcircumflex" unicode="&#x11c;" horiz-adv-x="754" 
d="M551 478l137 40q-35 93 -115.5 145.5t-182.5 52.5q-155 0 -251 -103q-97 -103 -97 -258v-6q0 -156 90 -257.5t238 -101.5q53 0 107.5 20t94.5 50l68 -60h66v361l-18 14h-290v-114h101q29 0 45 16l24 25v-114q0 -11 -11 -18l-24 -12q-72 -37 -149 -37q-90 0 -144 63.5
t-54 167.5v4q0 104 55 166.5t143 62.5q120 0 167 -107zM393 838h-7l-74 -85l-96 33l118 151h71q25 0 38 -6t26 -24l92 -121l-96 -32z" />
    <glyph glyph-name="gcircumflex" unicode="&#x11d;" horiz-adv-x="578" 
d="M29 274v-2q0 -103 74 -169q55 -50 163 -58q73 -6 94 -21q25 -19 25 -56q0 -43 -32.5 -67t-83.5 -24q-94 0 -186 78l-65 -91q41 -46 111.5 -77t142.5 -31q108 0 177 54.5t69 141.5q0 99 -85 150q75 65 75 169v3q0 57 -27 108h86v110h-67q-22 0 -41 -10l-46 -24
q-63 44 -142 44h-5q-103 0 -170 -65t-67 -163zM377 273q0 -48 -28.5 -79t-79.5 -31h-1q-51 0 -79.5 31t-28.5 79t28.5 79t79.5 31h1q51 0 79.5 -31t28.5 -79zM282 626h-7l-74 -85l-96 33l118 151h71q25 0 38 -6t26 -24l92 -121l-96 -32z" />
    <glyph glyph-name="Gbreve" unicode="&#x11e;" horiz-adv-x="754" 
d="M688 518l-137 -40q-47 107 -167 107q-88 0 -143 -62.5t-55 -166.5v-4q0 -104 54 -167.5t144 -63.5q77 0 149 37l24 12q11 7 11 18v114l-24 -25q-16 -16 -45 -16h-101v114h290l18 -14v-361h-66l-68 60q-40 -30 -94.5 -50t-107.5 -20q-148 0 -238 101.5t-90 257.5v6
q0 155 97 258q96 103 251 103q102 0 182.5 -52.5t115.5 -145.5zM388 753h-1q-68 0 -118.5 38t-56.5 104l103 14q16 -59 72 -59h1q27 0 46 16t25 43l103 -14q-7 -66 -56.5 -104t-117.5 -38z" />
    <glyph glyph-name="gbreve" unicode="&#x11f;" horiz-adv-x="578" 
d="M29 272v2q0 98 67 163t170 65h5q79 0 142 -44l46 24q19 10 41 10h67v-110h-86q27 -51 27 -108v-3q0 -104 -75 -169q85 -51 85 -150q0 -87 -69 -141.5t-177 -54.5q-72 0 -142.5 31t-111.5 77l65 91q92 -78 186 -78q51 0 83.5 24t32.5 67q0 37 -25 56q-21 15 -94 21
q-108 8 -163 58q-74 66 -74 169zM377 273q0 48 -28.5 79t-79.5 31h-1q-51 0 -79.5 -31t-28.5 -79t28.5 -79t79.5 -31h1q51 0 79.5 31t28.5 79zM277 550h-1q-68 0 -118.5 38t-56.5 104l103 14q16 -59 72 -59h1q27 0 46 16t25 43l103 -14q-7 -66 -56.5 -104t-117.5 -38z" />
    <glyph glyph-name="Gdotaccent" unicode="&#x120;" horiz-adv-x="754" 
d="M688 518l-137 -40q-47 107 -167 107q-88 0 -143 -62.5t-55 -166.5v-4q0 -104 54 -167.5t144 -63.5q77 0 149 37l24 12q11 7 11 18v114l-24 -25q-16 -16 -45 -16h-101v114h290l18 -14v-361h-66l-68 60q-40 -30 -94.5 -50t-107.5 -20q-148 0 -238 101.5t-90 257.5v6
q0 155 97 258q96 103 251 103q102 0 182.5 -52.5t115.5 -145.5zM460 919v-145h-82q-36 0 -49.5 9.5t-13.5 34.5v101h145z" />
    <glyph glyph-name="gdotaccent" unicode="&#x121;" horiz-adv-x="578" 
d="M29 272v2q0 98 67 163t170 65h5q79 0 142 -44l46 24q19 10 41 10h67v-110h-86q27 -51 27 -108v-3q0 -104 -75 -169q85 -51 85 -150q0 -87 -69 -141.5t-177 -54.5q-72 0 -142.5 31t-111.5 77l65 91q92 -78 186 -78q51 0 83.5 24t32.5 67q0 37 -25 56q-21 15 -94 21
q-108 8 -163 58q-74 66 -74 169zM377 273q0 48 -28.5 79t-79.5 31h-1q-51 0 -79.5 -31t-28.5 -79t28.5 -79t79.5 -31h1q51 0 79.5 31t28.5 79zM349 701v-145h-82q-36 0 -49.5 9.5t-13.5 34.5v101h145z" />
    <glyph glyph-name="Gcommaaccent" unicode="&#x122;" horiz-adv-x="754" 
d="M688 518l-137 -40q-47 107 -167 107q-88 0 -143 -62.5t-55 -166.5v-4q0 -104 54 -167.5t144 -63.5q77 0 149 37l24 12q11 7 11 18v114l-24 -25q-16 -16 -45 -16h-101v114h290l18 -14v-361h-66l-68 60q-40 -30 -94.5 -50t-107.5 -20q-148 0 -238 101.5t-90 257.5v6
q0 155 97 258q96 103 251 103q102 0 182.5 -52.5t115.5 -145.5zM440 -71v-97q-3 -102 -80 -142l-47 45q49 28 53 75h-16q-21 0 -29 9t-8 29v81h127z" />
    <glyph glyph-name="gcommaaccent" unicode="&#x123;" horiz-adv-x="578" 
d="M29 274v-2q0 -103 74 -169q55 -50 163 -58q73 -6 94 -21q25 -19 25 -56q0 -43 -32.5 -67t-83.5 -24q-94 0 -186 78l-65 -91q41 -46 111.5 -77t142.5 -31q108 0 177 54.5t69 141.5q0 99 -85 150q75 65 75 169v3q0 57 -27 108h86v110h-67q-22 0 -41 -10l-46 -24
q-63 44 -142 44h-5q-103 0 -170 -65t-67 -163zM377 273q0 -48 -28.5 -79t-79.5 -31h-1q-51 0 -79.5 31t-28.5 79t28.5 79t79.5 31h1q51 0 79.5 -31t28.5 -79zM199 573v97q3 102 80 142l47 -45q-49 -28 -53 -75h16q21 0 29 -9t8 -29v-81h-127z" />
    <glyph glyph-name="Hcircumflex" unicode="&#x124;" horiz-adv-x="736" 
d="M69 0v675l140 41v-296h318v255l140 41v-716h-140v300h-246q-31 0 -49 19l-23 25v-344h-140zM381 838h-7l-74 -85l-96 33l118 151h71q25 0 38 -6t26 -24l92 -121l-96 -32z" />
    <glyph glyph-name="hcircumflex" unicode="&#x125;" horiz-adv-x="558" 
d="M53 676l135 40v-139q0 -81 -7 -123l1 -1l7 5q65 44 128 44q87 0 140 -56q52 -54 52 -146v-300h-135v288q0 45 -23 70q-20 22 -57 22q-33 0 -72 -21l-23 -12q-11 -5 -11 -18v-329h-135v676zM125 812h-7l-74 -85l-96 33l118 151h71q25 0 38 -6t26 -24l92 -121l-96 -32z" />
    <glyph glyph-name="Hbar" unicode="&#x126;" horiz-adv-x="736" 
d="M69 0v511h-14q-31 0 -42.5 8t-11.5 30v59h68v67l140 41v-108h318v67l140 41v-108h67v-97h-67v-511h-140v298h-246q-31 0 -49 19l-23 25v-342h-140zM209 418h318v93h-318v-93z" />
    <glyph glyph-name="hbar" unicode="&#x127;" horiz-adv-x="558" 
d="M53 669l135 40v-94h99v-77h-100q-2 -54 -6 -84l1 -1l7 5q65 44 128 44q87 0 140 -56q52 -54 52 -146v-300h-135v288q0 45 -23 70q-20 22 -57 22q-33 0 -72 -21l-23 -12q-11 -5 -11 -18v-329h-135v538h-19q-31 0 -42.5 8t-11.5 30v39h73v54z" />
    <glyph glyph-name="Itilde" unicode="&#x128;" horiz-adv-x="284" 
d="M212 716v-716h-140v675zM357 867q-57 -105 -128 -105q-35 0 -68 19l-20 12q-34 20 -55 20q-38 0 -62 -44l-67 45q52 105 137 105q37 0 72 -22l19 -12q32 -19 44 -19q32 0 63 47z" />
    <glyph glyph-name="itilde" unicode="&#x129;" horiz-adv-x="275" 
d="M85 386v-386h135v492h-220v-110h14q33 0 70 5zM339 670q-57 -105 -128 -105q-35 0 -68 19l-20 12q-34 20 -55 20q-38 0 -62 -44l-67 45q52 105 137 105q37 0 72 -22l19 -12q32 -19 44 -19q32 0 63 47z" />
    <glyph glyph-name="Imacron" unicode="&#x12a;" horiz-adv-x="284" 
d="M212 716v-716h-140v675zM316 878v-112h-290q-31 0 -42.5 8t-11.5 30v74h344z" />
    <glyph glyph-name="imacron" unicode="&#x12b;" horiz-adv-x="275" 
d="M85 0v386l-1 1q-37 -5 -70 -5h-14v110h220v-492h-135zM308 690v-112h-290q-31 0 -42.5 8t-11.5 30v74h344z" />
    <glyph glyph-name="Ibreve" unicode="&#x12c;" horiz-adv-x="284" 
d="M212 716v-716h-140v675zM145 753h-1q-68 0 -118.5 38t-56.5 104l103 14q16 -59 72 -59h1q27 0 46 16t25 43l103 -14q-7 -66 -56.5 -104t-117.5 -38z" />
    <glyph glyph-name="ibreve" unicode="&#x12d;" horiz-adv-x="275" 
d="M85 0v386l-1 1q-37 -5 -70 -5h-14v110h220v-492h-135zM142 550h-1q-68 0 -118.5 38t-56.5 104l103 14q16 -59 72 -59h1q27 0 46 16t25 43l103 -14q-7 -66 -56.5 -104t-117.5 -38z" />
    <glyph glyph-name="Iogonek" unicode="&#x12e;" horiz-adv-x="284" 
d="M212 716v-716q-50 -14 -78.5 -48t-28.5 -74q0 -20 11 -31t29 -11h1q25 0 43 10l7 -74q-30 -20 -89 -20h-2q-57 0 -88.5 30t-31.5 80q0 86 87 145v668z" />
    <glyph glyph-name="iogonek" unicode="&#x12f;" horiz-adv-x="275" 
d="M85 7v379l-1 1q-37 -5 -70 -5h-14v110h220v-492q-51 -19 -76 -54t-25 -68q0 -20 11 -31t29 -11h1q25 0 43 10l7 -74q-30 -20 -89 -20h-2q-57 0 -88.5 30t-31.5 80q0 40 22.5 79t63.5 66zM220 683v-135h-76q-33 0 -46 9t-13 33v93h135z" />
    <glyph glyph-name="Idotaccent" unicode="&#x130;" horiz-adv-x="284" 
d="M212 716v-716h-140v675zM215 919v-145h-82q-36 0 -49.5 9.5t-13.5 34.5v101h145z" />
    <glyph glyph-name="dotlessi" unicode="&#x131;" horiz-adv-x="275" 
d="M85 0v386l-1 1q-37 -5 -70 -5h-14v110h220v-492h-135z" />
    <glyph glyph-name="IJ" unicode="&#x132;" horiz-adv-x="759" 
d="M212 716v-716h-140v675zM699 716v-494q0 -129 -60 -184q-52 -48 -143 -48q-96 0 -183 53l43 107q63 -33 116 -33q45 0 65 20q22 21 22 76v462z" />
    <glyph glyph-name="ij" unicode="&#x133;" horiz-adv-x="550" 
d="M220 683v-135h-76q-33 0 -46 9t-13 33v93h135zM85 0v386l-1 1q-37 -5 -70 -5h-14v110h220v-492h-135zM495 683v-135h-76q-33 0 -46 9t-13 33v93h135zM495 -211l-135 -25v622l-1 1q-37 -5 -70 -5h-14v110h220v-703z" />
    <glyph glyph-name="Jcircumflex" unicode="&#x134;" horiz-adv-x="464" 
d="M404 716v-494q0 -129 -60 -184q-52 -48 -143 -48q-96 0 -183 53l43 107q63 -33 116 -33q45 0 65 20q22 21 22 76v462zM343 838h-7l-74 -85l-96 33l118 151h71q25 0 38 -6t26 -24l92 -121l-96 -32z" />
    <glyph glyph-name="jcircumflex" unicode="&#x135;" horiz-adv-x="275" 
d="M85 -236l135 25v703h-220v-110h14q33 0 70 5l1 -1v-622zM142 626h-7l-74 -85l-96 33l118 151h71q25 0 38 -6t26 -24l92 -121l-96 -32z" />
    <glyph glyph-name="Kcommaaccent" unicode="&#x136;" horiz-adv-x="654" 
d="M69 0v675l140 41v-329l76 30l192 289h160l-179 -263q-36 -52 -79 -89l35 -21q28 -17 63 -68l177 -265h-168l-187 282l-90 -28v-254h-140zM390 -71v-97q-3 -102 -80 -142l-47 45q49 28 53 75h-16q-21 0 -29 9t-8 29v81h127z" />
    <glyph glyph-name="kcommaaccent" unicode="&#x137;" horiz-adv-x="541" 
d="M53 676l135 40v-418l52 27q23 13 43 41l88 126h139l-149 -213l188 -279h-158l-134 216l-69 -29v-187h-135v676zM349 -71v-97q-3 -102 -80 -142l-47 45q49 28 53 75h-16q-21 0 -29 9t-8 29v81h127z" />
    <glyph glyph-name="kgreenlandic" unicode="&#x138;" horiz-adv-x="549" 
d="M53 492h135v-194l52 27q23 13 43 41l88 126h139l-149 -213l188 -279h-158l-134 216l-69 -29v-187h-135v492z" />
    <glyph glyph-name="Lacute" unicode="&#x139;" horiz-adv-x="520" 
d="M69 0v675l140 41v-596h296l-20 -120h-416zM50 755l-28 81l253 99l26 -75q9 -28 2.5 -41t-30.5 -18z" />
    <glyph glyph-name="lacute" unicode="&#x13a;" horiz-adv-x="298" 
d="M188 716v-613l1 -1q31 8 70 8h17v-110h-97q-63 0 -95 29q-31 28 -31 90v557zM48 716l-35 79l244 120l32 -73q11 -26 5.5 -39.5t-28.5 -20.5z" />
    <glyph glyph-name="Lcommaaccent" unicode="&#x13b;" horiz-adv-x="520" 
d="M69 0v675l140 41v-596h296l-20 -120h-416zM345 -71v-97q-3 -102 -80 -142l-47 45q49 28 53 75h-16q-21 0 -29 9t-8 29v81h127z" />
    <glyph glyph-name="lcommaaccent" unicode="&#x13c;" horiz-adv-x="298" 
d="M188 716v-613l1 -1q31 8 70 8h17v-110h-97q-63 0 -95 29q-31 28 -31 90v557zM235 -71v-97q-3 -102 -80 -142l-47 45q49 28 53 75h-16q-21 0 -29 9t-8 29v81h127z" />
    <glyph glyph-name="Lcaron" unicode="&#x13d;" horiz-adv-x="520" 
d="M69 0v675l140 41v-596h296l-20 -120h-416zM405 716v-97q-3 -102 -80 -142l-47 45q49 28 53 75h-16q-21 0 -29 9t-8 29v81h127z" />
    <glyph glyph-name="lcaron" unicode="&#x13e;" horiz-adv-x="375" 
d="M188 716v-613l1 -1q31 8 70 8h17v-110h-97q-63 0 -95 29q-31 28 -31 90v557zM375 716v-97q-3 -102 -80 -142l-47 45q49 28 53 75h-16q-21 0 -29 9t-8 29v81h127z" />
    <glyph glyph-name="Ldot" unicode="&#x13f;" horiz-adv-x="566" 
d="M69 0v675l140 41v-596h296l-20 -120h-416zM490 316v145h-145v-101q0 -25 13.5 -34.5t49.5 -9.5h82z" />
    <glyph glyph-name="ldot" unicode="&#x140;" horiz-adv-x="467" 
d="M188 716v-613l1 -1q31 8 70 8h17v-110h-97q-63 0 -95 29q-31 28 -31 90v557zM424 275v145h-145v-101q0 -25 13.5 -34.5t49.5 -9.5h82z" />
    <glyph glyph-name="Lslash" unicode="&#x141;" horiz-adv-x="520" 
d="M69 0v282l-47 -20q-19 -8 -28.5 -2t-9.5 23v86l85 37v269l140 41v-248l135 58v-127l-135 -57v-222h296l-20 -120h-416z" />
    <glyph glyph-name="lslash" unicode="&#x142;" horiz-adv-x="311" 
d="M201 709v-255l91 46v-115l-91 -45l1 -238q31 8 70 8h17v-110h-97q-126 0 -126 119v156l-36 -18q-8 -4 -14 -4q-16 0 -16 23v78l66 33v282z" />
    <glyph glyph-name="Nacute" unicode="&#x143;" horiz-adv-x="736" 
d="M529 267l-385 439h-75v-706h138v439l385 -439h75v706h-138v-439zM268 755l-28 81l253 99l26 -75q9 -28 2.5 -41t-30.5 -18z" />
    <glyph glyph-name="nacute" unicode="&#x144;" horiz-adv-x="558" 
d="M155 436l-33 56l-69 -10v-482h135v329q0 13 11 18l23 12q39 21 72 21q37 0 57 -22q23 -25 23 -70v-288h135v300q0 92 -52 146q-53 56 -140 56q-64 0 -128 -43zM204 543l-35 79l244 120l32 -73q11 -26 5.5 -39.5t-28.5 -20.5z" />
    <glyph glyph-name="Ncommaaccent" unicode="&#x145;" horiz-adv-x="736" 
d="M144 706l385 -439v439h138v-706h-75l-385 439v-439h-138v706h75zM454 -71v-97q-3 -102 -80 -142l-47 45q49 28 53 75h-16q-21 0 -29 9t-8 29v81h127z" />
    <glyph glyph-name="ncommaaccent" unicode="&#x146;" horiz-adv-x="558" 
d="M122 492l33 -56l34 23q64 43 128 43q87 0 140 -56q52 -54 52 -146v-300h-135v288q0 45 -23 70q-20 22 -57 22q-33 0 -72 -21l-23 -12q-11 -5 -11 -18v-329h-135v482zM350 -71v-97q-3 -102 -80 -142l-47 45q49 28 53 75h-16q-21 0 -29 9t-8 29v81h127z" />
    <glyph glyph-name="Ncaron" unicode="&#x147;" horiz-adv-x="736" 
d="M529 267l-385 439h-75v-706h138v439l385 -439h75v706h-138v-439zM371 859h7l74 85l94 -33l-118 -151h-68q-43 0 -70 37l-89 114l98 32z" />
    <glyph glyph-name="ncaron" unicode="&#x148;" horiz-adv-x="558" 
d="M155 436l-33 56l-69 -10v-482h135v329q0 13 11 18l23 12q39 21 72 21q37 0 57 -22q23 -25 23 -70v-288h135v300q0 92 -52 146q-53 56 -140 56q-64 0 -128 -43zM288 648h7l74 85l94 -33l-118 -151h-68q-43 0 -70 37l-89 114l98 32z" />
    <glyph glyph-name="napostrophe" unicode="&#x149;" horiz-adv-x="605" 
d="M202 436l-33 56l-69 -10v-482h135v329q0 13 11 18l23 12q39 21 72 21q37 0 57 -22q23 -25 23 -70v-288h135v300q0 92 -52 146q-53 56 -140 56q-64 0 -128 -43zM87 706v-97q-3 -102 -80 -142l-47 45q49 28 53 75h-16q-21 0 -29 9t-8 29v81h127z" />
    <glyph glyph-name="Eng" unicode="&#x14a;" horiz-adv-x="736" 
d="M144 706l385 -438v438h138v-695q0 -112 -42.5 -164.5t-128.5 -52.5q-57 0 -111 20l26 111q28 -9 60 -9q58 0 58 85v70l-322 367v-438h-138v706h75z" />
    <glyph glyph-name="eng" unicode="&#x14b;" horiz-adv-x="558" 
d="M509 300v-341q0 -93 -36 -147t-112 -54q-73 0 -119 24l23 94q36 -9 60 -9q30 0 39.5 25.5t9.5 72.5v323q0 45 -23 70q-20 22 -57 22q-33 0 -72 -21l-23 -12q-11 -5 -11 -18v-329h-135v482l69 10l33 -56l34 23q64 43 128 43q87 0 140 -56q52 -54 52 -146z" />
    <glyph glyph-name="Omacron" unicode="&#x14c;" horiz-adv-x="780" 
d="M594 347v12q0 92 -55.5 158.5t-146.5 66.5h-4q-92 -1 -147 -67.5t-55 -157.5v-12q0 -91 55 -157.5t147 -67.5h4q91 0 146.5 66.5t55.5 158.5zM738 359v-12q0 -152 -99 -254.5t-247 -102.5h-4q-148 0 -247 102.5t-99 254.5v12q0 152 99 254.5t247 102.5h4
q148 0 247 -102.5t99 -254.5zM560 878v-112h-290q-31 0 -42.5 8t-11.5 30v74h344z" />
    <glyph glyph-name="omacron" unicode="&#x14d;" horiz-adv-x="567" 
d="M28 245v2q0 107 75 181t180 74h1q105 0 180 -74t75 -181v-2q0 -107 -75 -181t-180 -74h-1q-105 0 -180 74t-75 181zM166 249v-6q0 -57 32.5 -92.5t82.5 -35.5h5q50 0 82.5 35.5t32.5 92.5v6q0 57 -32.5 92.5t-82.5 35.5h-5q-50 0 -82.5 -35.5t-32.5 -92.5zM455 690v-112
h-290q-31 0 -42.5 8t-11.5 30v74h344z" />
    <glyph glyph-name="Obreve" unicode="&#x14e;" horiz-adv-x="780" 
d="M594 347v12q0 92 -55.5 158.5t-146.5 66.5h-4q-92 -1 -147 -67.5t-55 -157.5v-12q0 -91 55 -157.5t147 -67.5h4q91 0 146.5 66.5t55.5 158.5zM738 359v-12q0 -152 -99 -254.5t-247 -102.5h-4q-148 0 -247 102.5t-99 254.5v12q0 152 99 254.5t247 102.5h4
q148 0 247 -102.5t99 -254.5zM391 753h-1q-68 0 -118.5 38t-56.5 104l103 14q16 -59 72 -59h1q27 0 46 16t25 43l103 -14q-7 -66 -56.5 -104t-117.5 -38z" />
    <glyph glyph-name="obreve" unicode="&#x14f;" horiz-adv-x="567" 
d="M28 245v2q0 107 75 181t180 74h1q105 0 180 -74t75 -181v-2q0 -107 -75 -181t-180 -74h-1q-105 0 -180 74t-75 181zM166 249v-6q0 -57 32.5 -92.5t82.5 -35.5h5q50 0 82.5 35.5t32.5 92.5v6q0 57 -32.5 92.5t-82.5 35.5h-5q-50 0 -82.5 -35.5t-32.5 -92.5zM284 550h-1
q-68 0 -118.5 38t-56.5 104l103 14q16 -59 72 -59h1q27 0 46 16t25 43l103 -14q-7 -66 -56.5 -104t-117.5 -38z" />
    <glyph glyph-name="Ohungarumlaut" unicode="&#x150;" horiz-adv-x="780" 
d="M594 359v-12q0 -92 -55.5 -158.5t-146.5 -66.5h-4q-92 1 -147 67.5t-55 157.5v12q0 91 55 157.5t147 67.5h4q91 0 146.5 -66.5t55.5 -158.5zM738 347v12q0 152 -99 254.5t-247 102.5h-4q-148 0 -247 -102.5t-99 -254.5v-12q0 -152 99 -254.5t247 -102.5h4
q148 0 247 102.5t99 254.5zM274 759l-99 36l153 166l63 -50q25 -20 25 -37q0 -15 -17 -26zM513 759l-99 36l153 166l63 -50q25 -20 25 -37q0 -15 -17 -26z" />
    <glyph glyph-name="ohungarumlaut" unicode="&#x151;" horiz-adv-x="567" 
d="M28 247v-2q0 -107 75 -181t180 -74h1q105 0 180 74t75 181v2q0 107 -75 181t-180 74h-1q-105 0 -180 -74t-75 -181zM166 243v6q0 57 32.5 92.5t82.5 35.5h5q50 0 82.5 -35.5t32.5 -92.5v-6q0 -57 -32.5 -92.5t-82.5 -35.5h-5q-50 0 -82.5 35.5t-32.5 92.5zM206 545
l-99 36l159 196l63 -50q41 -33 8 -63zM427 545l-99 36l159 196l63 -50q41 -33 8 -63z" />
    <glyph glyph-name="OE" unicode="&#x152;" horiz-adv-x="1009" 
d="M639 377l23 25q18 19 49 19h187v-116h-259v-185h342l-20 -120h-295q-52 0 -143 -1t-121 -1q-168 0 -264 97t-96 252v12q0 153 100.5 251.5t259.5 98.5q46 0 138 -1.5t128 -1.5h306l-20 -120h-315v-209zM398 122h101v462h-101q-94 -1 -153 -64.5t-59 -160.5v-12
q0 -98 58.5 -161t153.5 -64z" />
    <glyph glyph-name="oe" unicode="&#x153;" horiz-adv-x="921" 
d="M28 245v2q0 107 75 181t180 74h1q109 0 182 -80q78 80 184 80h1q106 0 174.5 -70t68.5 -175v-7l-43 -43h-315q10 -39 40 -68t88 -29q70 0 152 54l59 -81q-42 -44 -102 -68.5t-124 -24.5q-54 0 -103.5 22t-80.5 57q-30 -36 -79.5 -57.5t-101.5 -21.5h-1q-105 0 -180 74
t-75 181zM166 249v-6q0 -57 32.5 -92.5t82.5 -35.5h5q50 0 82.5 35t32.5 92v7q0 58 -32.5 93t-82.5 35h-5q-50 0 -82.5 -35.5t-32.5 -92.5zM757 297q-11 42 -39.5 65.5t-69.5 23.5q-69 0 -100 -62q-6 -12 -11 -30q33 6 75 6h76q40 0 69 -3z" />
    <glyph glyph-name="Racute" unicode="&#x154;" horiz-adv-x="617" 
d="M577 487q0 -77 -41.5 -135.5t-112.5 -77.5l18 -14q29 -23 63 -78l112 -182h-164l-144 251h-99v-251h-140v706h237q63 0 102 -7.5t75 -29.5q43 -26 68.5 -75t25.5 -107zM209 590v-223h92q129 0 129 115q0 52 -29 79q-29 29 -100 29h-92zM208 755l-28 81l253 99l26 -75
q9 -28 2.5 -41t-30.5 -18z" />
    <glyph glyph-name="racute" unicode="&#x155;" horiz-adv-x="362" 
d="M153 438l-31 54l-69 -10v-482h135v335q0 13 11 18l20 10q40 20 77 20h53v110q-20 9 -52 9t-56 -9.5t-58 -33.5zM111 543l-35 79l244 120l32 -73q11 -26 5.5 -39.5t-28.5 -20.5z" />
    <glyph glyph-name="Rcommaaccent" unicode="&#x156;" horiz-adv-x="617" 
d="M577 487q0 -77 -41.5 -135.5t-112.5 -77.5l18 -14q29 -23 63 -78l112 -182h-164l-144 251h-99v-251h-140v706h237q63 0 102 -7.5t75 -29.5q43 -26 68.5 -75t25.5 -107zM209 590v-223h92q129 0 129 115q0 52 -29 79q-29 29 -100 29h-92zM398 -71v-97q-3 -102 -80 -142
l-47 45q49 28 53 75h-16q-21 0 -29 9t-8 29v81h127z" />
    <glyph glyph-name="rcommaaccent" unicode="&#x157;" horiz-adv-x="362" 
d="M122 492l31 -54l30 21q34 24 58 33.5t56 9.5t52 -9v-110h-53q-37 0 -77 -20l-20 -10q-11 -5 -11 -18v-335h-135v482zM184 -71v-97q-3 -102 -80 -142l-47 45q49 28 53 75h-16q-21 0 -29 9t-8 29v81h127z" />
    <glyph glyph-name="Rcaron" unicode="&#x158;" horiz-adv-x="617" 
d="M577 487q0 -77 -41.5 -135.5t-112.5 -77.5l18 -14q29 -23 63 -78l112 -182h-164l-144 251h-99v-251h-140v706h237q63 0 102 -7.5t75 -29.5q43 -26 68.5 -75t25.5 -107zM209 590v-223h92q129 0 129 115q0 52 -29 79q-29 29 -100 29h-92zM306 859h7l74 85l94 -33l-118 -151
h-68q-43 0 -70 37l-89 114l98 32z" />
    <glyph glyph-name="rcaron" unicode="&#x159;" horiz-adv-x="362" 
d="M153 438l-31 54l-69 -10v-482h135v335q0 13 11 18l20 10q40 20 77 20h53v110q-20 9 -52 9t-56 -9.5t-58 -33.5zM193 648h7l74 85l94 -33l-118 -151h-68q-43 0 -70 37l-89 114l98 32z" />
    <glyph glyph-name="Sacute" unicode="&#x15a;" horiz-adv-x="566" 
d="M46 514q0 -79 47.5 -127t145.5 -81q87 -31 118.5 -51.5t31.5 -52.5q0 -39 -33.5 -63.5t-87.5 -24.5h-3q-77 0 -175 53l-56 -104q108 -73 235 -73h3q116 0 186 59t70 167q0 80 -50 123t-159 82q-73 26 -104 47.5t-31 53.5t31 51.5t80 19.5h2q79 0 154 -42l56 109
q-94 56 -208 56h-5q-113 0 -180.5 -55t-67.5 -147zM195 755l-28 81l253 99l26 -75q9 -28 2.5 -41t-30.5 -18z" />
    <glyph glyph-name="sacute" unicode="&#x15b;" horiz-adv-x="475" 
d="M390 352q-65 38 -137 38q-83 0 -83 -40q0 -18 28 -29t67.5 -20t79 -22.5t67.5 -44.5t28 -77q0 -76 -54.5 -121.5t-151.5 -45.5q-53 0 -113.5 22.5t-92.5 53.5l48 91q82 -55 152 -55q38 0 59 12.5t21 29.5q0 20 -27.5 32t-66.5 20.5t-78 22t-66.5 46t-27.5 83.5
q0 67 55 110.5t149 43.5q108 0 189 -57zM154 543l-35 79l244 120l32 -73q11 -26 5.5 -39.5t-28.5 -20.5z" />
    <glyph glyph-name="Scircumflex" unicode="&#x15c;" horiz-adv-x="566" 
d="M46 514q0 -79 47.5 -127t145.5 -81q87 -31 118.5 -51.5t31.5 -52.5q0 -39 -33.5 -63.5t-87.5 -24.5h-3q-77 0 -175 53l-56 -104q108 -73 235 -73h3q116 0 186 59t70 167q0 80 -50 123t-159 82q-73 26 -104 47.5t-31 53.5t31 51.5t80 19.5h2q79 0 154 -42l56 109
q-94 56 -208 56h-5q-113 0 -180.5 -55t-67.5 -147zM289 838h-7l-74 -85l-96 33l118 151h71q25 0 38 -6t26 -24l92 -121l-96 -32z" />
    <glyph glyph-name="scircumflex" unicode="&#x15d;" horiz-adv-x="475" 
d="M390 352q-65 38 -137 38q-83 0 -83 -40q0 -18 28 -29t67.5 -20t79 -22.5t67.5 -44.5t28 -77q0 -76 -54.5 -121.5t-151.5 -45.5q-53 0 -113.5 22.5t-92.5 53.5l48 91q82 -55 152 -55q38 0 59 12.5t21 29.5q0 20 -27.5 32t-66.5 20.5t-78 22t-66.5 46t-27.5 83.5
q0 67 55 110.5t149 43.5q108 0 189 -57zM246 626h-7l-74 -85l-96 33l118 151h71q25 0 38 -6t26 -24l92 -121l-96 -32z" />
    <glyph glyph-name="Scedilla" unicode="&#x15e;" horiz-adv-x="566" 
d="M46 514q0 92 67.5 147t180.5 55h5q114 0 208 -56l-56 -109q-75 42 -154 42h-2q-49 0 -80 -19.5t-31 -51.5t31.5 -54t103.5 -48q109 -39 159 -81.5t50 -122.5q0 -100 -60.5 -158t-163.5 -66l-11 -61l13 12q9 8 29 8h12q38 0 63 -25t25 -67q0 -54 -39 -84.5t-108 -30.5h-2
q-83 0 -133 41l33 58q43 -26 91 -26h1q58 0 58 34q0 30 -49 30q-27 0 -65 -9l-14 13l19 108q-109 11 -193 70l56 104q98 -53 175 -53h3q54 0 87.5 24.5t33.5 63.5q0 32 -31.5 53.5t-118.5 51.5q-98 33 -145.5 80.5t-47.5 126.5z" />
    <glyph glyph-name="scedilla" unicode="&#x15f;" horiz-adv-x="475" 
d="M390 352q-65 38 -137 38q-83 0 -83 -40q0 -18 28 -29t67.5 -20t79 -22.5t67.5 -44.5t28 -77q0 -69 -46 -113.5t-129 -51.5l-10 -61l13 12q9 8 29 8h12q38 0 63 -25t25 -67q0 -54 -39 -84.5t-108 -30.5h-2q-83 0 -133 41l33 58q43 -26 91 -26h1q58 0 58 34q0 30 -49 30
q-27 0 -65 -9l-14 13l19 109q-46 7 -91 27.5t-70 44.5l48 91q82 -55 152 -55q38 0 59 12.5t21 29.5q0 20 -27.5 32t-66.5 20.5t-78 22t-66.5 46t-27.5 83.5q0 67 55 110.5t149 43.5q108 0 189 -57z" />
    <glyph glyph-name="Scaron" unicode="&#x160;" horiz-adv-x="566" 
d="M46 514q0 -79 47.5 -127t145.5 -81q87 -31 118.5 -51.5t31.5 -52.5q0 -39 -33.5 -63.5t-87.5 -24.5h-3q-77 0 -175 53l-56 -104q108 -73 235 -73h3q116 0 186 59t70 167q0 80 -50 123t-159 82q-73 26 -104 47.5t-31 53.5t31 51.5t80 19.5h2q79 0 154 -42l56 109
q-94 56 -208 56h-5q-113 0 -180.5 -55t-67.5 -147zM284 859h7l74 85l94 -33l-118 -151h-68q-43 0 -70 37l-89 114l98 32z" />
    <glyph glyph-name="scaron" unicode="&#x161;" horiz-adv-x="475" 
d="M390 352q-65 38 -137 38q-83 0 -83 -40q0 -18 28 -29t67.5 -20t79 -22.5t67.5 -44.5t28 -77q0 -76 -54.5 -121.5t-151.5 -45.5q-53 0 -113.5 22.5t-92.5 53.5l48 91q82 -55 152 -55q38 0 59 12.5t21 29.5q0 20 -27.5 32t-66.5 20.5t-78 22t-66.5 46t-27.5 83.5
q0 67 55 110.5t149 43.5q108 0 189 -57zM237 648h7l74 85l94 -33l-118 -151h-68q-43 0 -70 37l-89 114l98 32z" />
    <glyph glyph-name="Tcommaaccent" unicode="&#x162;" horiz-adv-x="585" 
d="M357 0h-140v587h-204v119h572l-20 -119h-208v-587zM350 -71v-97q-3 -102 -80 -142l-47 45q49 28 53 75h-16q-21 0 -29 9t-8 29v81h127z" />
    <glyph glyph-name="tcommaaccent" unicode="&#x163;" horiz-adv-x="392" 
d="M48 615l135 40v-163h170v-110h-98q-34 0 -52 19l-20 21v-233q0 -42 14 -59q18 -21 61 -21q40 0 87 20l35 -98q-67 -41 -150 -41t-132.5 48.5t-49.5 137.5v439zM282 -71v-97q-3 -102 -80 -142l-47 45q49 28 53 75h-16q-21 0 -29 9t-8 29v81h127z" />
    <glyph glyph-name="Tcaron" unicode="&#x164;" horiz-adv-x="585" 
d="M357 0h-140v587h-204v119h572l-20 -119h-208v-587zM288 859h7l74 85l94 -33l-118 -151h-68q-43 0 -70 37l-89 114l98 32z" />
    <glyph glyph-name="tcaron" unicode="&#x165;" horiz-adv-x="394" 
d="M48 615l135 40v-163h170v-110h-98q-34 0 -52 19l-20 21v-233q0 -42 14 -59q18 -21 61 -21q40 0 87 20l35 -98q-67 -41 -150 -41t-132.5 48.5t-49.5 137.5v439zM382 783v-97q-3 -102 -80 -142l-47 45q49 28 53 75h-16q-21 0 -29 9t-8 29v81h127z" />
    <glyph glyph-name="Tbar" unicode="&#x166;" horiz-adv-x="585" 
d="M357 0h-140v274h-100q-31 0 -42.5 8t-11.5 30v59h154v215h-204v120h572l-20 -120h-208v-215h149v-97h-149v-274z" />
    <glyph glyph-name="tbar" unicode="&#x167;" horiz-adv-x="392" 
d="M183 422v-111h119v-77h-119v-45q0 -42 14 -59q18 -21 61 -21q40 0 87 20l35 -98q-67 -41 -150 -41t-132.5 48.5t-49.5 137.5v58h-19q-31 0 -42.5 8t-11.5 30v39h73v304l135 40v-163h170v-110h-98q-34 0 -52 19z" />
    <glyph glyph-name="Utilde" unicode="&#x168;" horiz-adv-x="696" 
d="M636 716v-436q0 -133 -66 -207q-74 -83 -220 -83h-4q-146 0 -220 83q-66 74 -66 207v395l140 41v-438q0 -82 39 -120q38 -38 107 -38h4q69 0 107 38q39 38 39 120v397zM561 867q-57 -105 -128 -105q-35 0 -68 19l-20 12q-34 20 -55 20q-38 0 -62 -44l-67 45
q52 105 137 105q37 0 72 -22l19 -12q32 -19 44 -19q32 0 63 47z" />
    <glyph glyph-name="utilde" unicode="&#x169;" horiz-adv-x="556" 
d="M395 51l-27 -18q-65 -43 -127 -43q-87 0 -140 56q-52 54 -52 146v300h135v-288q0 -45 23 -70q20 -22 57 -22q30 0 70 21l23 12q11 5 11 18v329h135v-485l-70 -7zM478 670q-57 -105 -128 -105q-35 0 -68 19l-20 12q-34 20 -55 20q-38 0 -62 -44l-67 45q52 105 137 105
q37 0 72 -22l19 -12q32 -19 44 -19q32 0 63 47z" />
    <glyph glyph-name="Umacron" unicode="&#x16a;" horiz-adv-x="696" 
d="M636 716v-436q0 -133 -66 -207q-74 -83 -220 -83h-4q-146 0 -220 83q-66 74 -66 207v395l140 41v-438q0 -82 39 -120q38 -38 107 -38h4q69 0 107 38q39 38 39 120v397zM521 878v-112h-290q-31 0 -42.5 8t-11.5 30v74h344z" />
    <glyph glyph-name="umacron" unicode="&#x16b;" horiz-adv-x="556" 
d="M395 51l-27 -18q-65 -43 -127 -43q-87 0 -140 56q-52 54 -52 146v300h135v-288q0 -45 23 -70q20 -22 57 -22q30 0 70 21l23 12q11 5 11 18v329h135v-485l-70 -7zM450 690v-112h-290q-31 0 -42.5 8t-11.5 30v74h344z" />
    <glyph glyph-name="Ubreve" unicode="&#x16c;" horiz-adv-x="696" 
d="M636 716v-436q0 -133 -66 -207q-74 -83 -220 -83h-4q-146 0 -220 83q-66 74 -66 207v395l140 41v-438q0 -82 39 -120q38 -38 107 -38h4q69 0 107 38q39 38 39 120v397zM359 753h-1q-68 0 -118.5 38t-56.5 104l103 14q16 -59 72 -59h1q27 0 46 16t25 43l103 -14
q-7 -66 -56.5 -104t-117.5 -38z" />
    <glyph glyph-name="ubreve" unicode="&#x16d;" horiz-adv-x="556" 
d="M395 51l-27 -18q-65 -43 -127 -43q-87 0 -140 56q-52 54 -52 146v300h135v-288q0 -45 23 -70q20 -22 57 -22q30 0 70 21l23 12q11 5 11 18v329h135v-485l-70 -7zM279 550h-1q-68 0 -118.5 38t-56.5 104l103 14q16 -59 72 -59h1q27 0 46 16t25 43l103 -14
q-7 -66 -56.5 -104t-117.5 -38z" />
    <glyph glyph-name="Uring" unicode="&#x16e;" horiz-adv-x="696" 
d="M636 716v-436q0 -133 -66 -207q-74 -83 -220 -83h-4q-146 0 -220 83q-66 74 -66 207v395l140 41v-438q0 -82 39 -120q38 -38 107 -38h4q69 0 107 38q39 38 39 120v397zM348 720q-46 0 -79.5 31t-33.5 75v1q0 44 33.5 74t79.5 30t79.5 -30t33.5 -74v-1q0 -44 -33.5 -75
t-79.5 -31zM349 865h-2q-15 0 -26 -10.5t-11 -26.5v-3q0 -16 11 -26.5t26 -10.5h2q15 0 26 10.5t11 26.5v3q0 16 -11 26.5t-26 10.5z" />
    <glyph glyph-name="uring" unicode="&#x16f;" horiz-adv-x="556" 
d="M395 51l-27 -18q-65 -43 -127 -43q-87 0 -140 56q-52 54 -52 146v300h135v-288q0 -45 23 -70q20 -22 57 -22q30 0 70 21l23 12q11 5 11 18v329h135v-485l-70 -7zM282 549q-46 0 -79.5 31t-33.5 75v1q0 44 33.5 74t79.5 30t79.5 -30t33.5 -74v-1q0 -44 -33.5 -75
t-79.5 -31zM283 694h-2q-15 0 -26 -10.5t-11 -26.5v-3q0 -16 11 -26.5t26 -10.5h2q15 0 26 10.5t11 26.5v3q0 16 -11 26.5t-26 10.5z" />
    <glyph glyph-name="Uhungarumlaut" unicode="&#x170;" horiz-adv-x="696" 
d="M636 716v-436q0 -133 -66 -207q-74 -83 -220 -83h-4q-146 0 -220 83q-66 74 -66 207v395l140 41v-438q0 -82 39 -120q38 -38 107 -38h4q69 0 107 38q39 38 39 120v397zM249 759l-99 36l153 166l63 -50q25 -20 25 -37q0 -15 -17 -26zM488 759l-99 36l153 166l63 -50
q25 -20 25 -37q0 -15 -17 -26z" />
    <glyph glyph-name="uhungarumlaut" unicode="&#x171;" horiz-adv-x="556" 
d="M395 51l-27 -18q-65 -43 -127 -43q-87 0 -140 56q-52 54 -52 146v300h135v-288q0 -45 23 -70q20 -22 57 -22q30 0 70 21l23 12q11 5 11 18v329h135v-485l-70 -7zM193 545l-99 36l159 196l63 -50q41 -33 8 -63zM414 545l-99 36l159 196l63 -50q41 -33 8 -63z" />
    <glyph glyph-name="Uogonek" unicode="&#x172;" horiz-adv-x="696" 
d="M636 716v-445q0 -187 -136 -254q-48 -24 -72.5 -62.5t-24.5 -72.5q0 -46 40 -46h1q25 0 43 10l7 -74q-30 -20 -89 -20h-2q-57 0 -88.5 30t-31.5 80q0 73 65 125h-2q-140 0 -213 72t-73 212v404l140 41v-446q0 -76 39 -114t107 -38h4q69 0 107.5 38t38.5 114v405z" />
    <glyph glyph-name="uogonek" unicode="&#x173;" horiz-adv-x="556" 
d="M395 51l-27 -18q-65 -43 -127 -43q-87 0 -140 56q-52 54 -52 146v300h135v-288q0 -45 23 -70q20 -22 57 -22q30 0 70 21l23 12q11 5 11 18v329h135v-485q-72 -62 -72 -129q0 -20 11 -31t29 -11h1q25 0 43 10l7 -74q-30 -20 -89 -20h-2q-57 0 -88.5 30t-31.5 80
q0 41 30 85t78 71z" />
    <glyph glyph-name="Wcircumflex" unicode="&#x174;" horiz-adv-x="1024" 
d="M548 696h-143l46 -139l-141 -405h-4q-19 108 -72 297l-72 257h-150l205 -706h167l132 379l131 -379h166l199 706h-146l-74 -279q-33 -124 -62 -271h-4zM504 838h-7l-74 -85l-96 33l118 151h71q25 0 38 -6t26 -24l92 -121l-96 -32z" />
    <glyph glyph-name="wcircumflex" unicode="&#x175;" horiz-adv-x="801" 
d="M511 0h120l166 492h-133l-59 -182q-24 -72 -37 -147h-1l-155 329h-27l-146 -329h-1q-12 62 -40 152l-55 177h-139l167 -492h119l107 248h1zM405 626h-7l-74 -85l-96 33l118 151h71q25 0 38 -6t26 -24l92 -121l-96 -32z" />
    <glyph glyph-name="Ycircumflex" unicode="&#x176;" horiz-adv-x="625" 
d="M382 0v292l233 414h-155l-79 -154q-36 -69 -66 -136h-2l-67 136l-79 154h-157l232 -414v-292h140zM317 838h-7l-74 -85l-96 33l118 151h71q25 0 38 -6t26 -24l92 -121l-96 -32z" />
    <glyph glyph-name="ycircumflex" unicode="&#x177;" horiz-adv-x="536" 
d="M142 492h-138l179 -430q44 -105 44 -134q0 -58 -64 -58q-31 0 -75 11l-23 -94q55 -29 129 -29q70 0 116 47t46 118q0 49 -19 93l195 476h-132l-82 -214q-32 -82 -43 -133h-1q-11 44 -50 143zM279 626h-7l-74 -85l-96 33l118 151h71q25 0 38 -6t26 -24l92 -121l-96 -32z
" />
    <glyph glyph-name="Ydieresis" unicode="&#x178;" horiz-adv-x="625" 
d="M382 292v-292h-140v292l-232 414h157l79 -154l67 -136h2q30 67 66 136l79 154h155zM273 922v-125h-71q-31 0 -42.5 8t-11.5 30v87h125zM477 922v-125h-71q-31 0 -42.5 8t-11.5 30v87h125z" />
    <glyph glyph-name="Zacute" unicode="&#x179;" horiz-adv-x="599" 
d="M67 0l-37 66l352 521h-330v119h488l31 -75l-346 -512h342l-20 -119h-480zM223 755l-28 81l253 99l26 -75q9 -28 2.5 -41t-30.5 -18z" />
    <glyph glyph-name="zacute" unicode="&#x17a;" horiz-adv-x="465" 
d="M43 0l-26 41l174 247q51 72 72 94h-221v110h385l24 -44l-161 -229q-62 -87 -82 -109h233l-30 -110h-368zM167 543l-35 79l244 120l32 -73q11 -26 5.5 -39.5t-28.5 -20.5z" />
    <glyph glyph-name="Zdotaccent" unicode="&#x17b;" horiz-adv-x="599" 
d="M67 0l-37 66l352 521h-330v119h488l31 -75l-346 -512h342l-20 -119h-480zM383 919v-145h-82q-36 0 -49.5 9.5t-13.5 34.5v101h145z" />
    <glyph glyph-name="zdotaccent" unicode="&#x17c;" horiz-adv-x="465" 
d="M43 0l-26 41l174 247q51 72 72 94h-221v110h385l24 -44l-161 -229q-62 -87 -82 -109h233l-30 -110h-368zM316 701v-145h-82q-36 0 -49.5 9.5t-13.5 34.5v101h145z" />
    <glyph glyph-name="Zcaron" unicode="&#x17d;" horiz-adv-x="599" 
d="M67 0l-37 66l352 521h-330v119h488l31 -75l-346 -512h342l-20 -119h-480zM306 859h7l74 85l94 -33l-118 -151h-68q-43 0 -70 37l-89 114l98 32z" />
    <glyph glyph-name="zcaron" unicode="&#x17e;" horiz-adv-x="465" 
d="M43 0l-26 41l174 247q51 72 72 94h-221v110h385l24 -44l-161 -229q-62 -87 -82 -109h233l-30 -110h-368zM243 648h7l74 85l94 -33l-118 -151h-68q-43 0 -70 37l-89 114l98 32z" />
    <glyph glyph-name="longs" unicode="&#x17f;" horiz-adv-x="294" 
d="M188 514v-514h-135v517q0 96 53.5 147.5t143.5 51.5q88 0 163 -36l-35 -99q-61 16 -103 16q-46 0 -66.5 -19.5t-20.5 -63.5z" />
    <glyph glyph-name="florin" unicode="&#x192;" horiz-adv-x="455" 
d="M385 241h-170v-288q0 -88 -42.5 -143.5t-133.5 -55.5q-50 0 -80 8t-72 28l35 99q61 -16 94 -16q36 0 50 25t14 58v561q0 92 51 145q52 54 146 54q88 0 163 -36l-35 -99q-61 16 -103 16q-48 0 -69 -22q-18 -18 -18 -61v-203l20 21q18 19 52 19h98v-110z" />
    <glyph glyph-name="Acaron" unicode="&#x1cd;" horiz-adv-x="705" 
d="M348 493l-92 -235h187l-93 235h-2zM398 716l299 -716h-151l-56 141h-282l-55 -141h-145l280 683zM347 859h7l74 85l94 -33l-118 -151h-68q-43 0 -70 37l-89 114l98 32z" />
    <glyph glyph-name="acaron" unicode="&#x1ce;" horiz-adv-x="583" 
d="M166 244v3q0 63 37 100q32 32 87 32q44 0 78 -30q27 -24 27 -77v-105q0 -11 -11 -18l-35 -19q-32 -17 -67 -17h-1q-53 0 -84 37.5t-31 93.5zM530 7v483l-15 4l-85 -56q-55 64 -154 64q-102 0 -175 -75t-73 -179v-5q0 -106 68 -179.5t171 -73.5q55 0 106 33l43 28l44 -51z
M292 648h7l74 85l94 -33l-118 -151h-68q-43 0 -70 37l-89 114l98 32z" />
    <glyph glyph-name="Aringacute" unicode="&#x1fa;" horiz-adv-x="705" 
d="M245 885l-35 79l244 120l32 -73q11 -26 5.5 -39.5t-28.5 -20.5zM456 756q0 -51 -43 -82l284 -674h-151l-56 140h-282l-55 -140h-145l273 668q-51 31 -51 88v1q0 44 33.5 74t79.5 30t79.5 -30t33.5 -74v-1zM348 491l-92 -233h187l-93 233h-2zM344 795h-2q-15 0 -26 -10.5
t-11 -26.5v-3q0 -16 11 -26.5t26 -10.5h2q15 0 26 10.5t11 26.5v3q0 16 -11 26.5t-26 10.5z" />
    <glyph glyph-name="aringacute" unicode="&#x1fb;" horiz-adv-x="583" 
d="M166 244v3q0 63 37 100q32 32 87 32q44 0 78 -30q27 -24 27 -77v-105q0 -11 -11 -18l-35 -19q-32 -17 -67 -17h-1q-53 0 -84 37.5t-31 93.5zM530 7v483l-15 4l-85 -56q-55 64 -154 64q-102 0 -175 -75t-73 -179v-5q0 -106 68 -179.5t171 -73.5q55 0 106 33l43 28l44 -51z
M291 534q46 0 79.5 31t33.5 75v1q0 44 -33.5 74t-79.5 30t-79.5 -30t-33.5 -74v-1q0 -44 33.5 -75t79.5 -31zM290 679h2q15 0 26 -10.5t11 -26.5v-3q0 -16 -11 -26.5t-26 -10.5h-2q-15 0 -26 10.5t-11 26.5v3q0 16 11 26.5t26 10.5zM194 757l-35 79l244 120l32 -73
q11 -26 5.5 -39.5t-28.5 -20.5z" />
    <glyph glyph-name="AEacute" unicode="&#x1fc;" horiz-adv-x="977" 
d="M607 377l23 25q18 19 49 19h187v-116h-259v-185h342l-20 -120h-462v140h-235l-74 -140h-150l375 706h559l-20 -120h-315v-209zM457 568l-166 -310h176v310h-10zM564 755l-28 81l253 99l26 -75q9 -28 2.5 -41t-30.5 -18z" />
    <glyph glyph-name="aeacute" unicode="&#x1fd;" horiz-adv-x="891" 
d="M821 207h-315q10 -39 40 -68t88 -29q70 0 152 54l59 -81q-42 -44 -102 -68.5t-124 -24.5q-53 0 -107 22.5t-85 56.5q-65 -79 -193 -79q-87 0 -144 40.5t-57 119.5v5q0 72 58 110.5t156 38.5q30 0 116 -7v13q0 36 -26 58t-77 22q-90 0 -151 -36l-39 93q97 55 190 55
q136 0 186 -78q68 78 180 78h1q108 0 172.5 -69t64.5 -176v-7zM171 154v-3q0 -24 23 -40.5t63 -16.5h1q84 0 127 46q-12 27 -17 64q-33 3 -110 3q-45 0 -66 -15t-21 -38zM727 297q-11 41 -39 65t-68 24q-71 0 -102 -62q-6 -12 -11 -30q33 6 75 6h76q40 0 69 -3zM397 543
l-35 79l244 120l32 -73q11 -26 5.5 -39.5t-28.5 -20.5z" />
    <glyph glyph-name="Oslashacute" unicode="&#x1fe;" horiz-adv-x="780" 
d="M737 359v-12q0 -152 -98.5 -254.5t-246.5 -102.5h-4q-120 0 -209 69l-72 -74l-82 77l77 79q-59 90 -59 206v12q0 152 99 254.5t246 102.5h4q115 0 206 -67l68 70l83 -77l-74 -75q62 -92 62 -208zM594 347v12q0 51 -21 103l-298 -305q49 -35 113 -35h4q91 0 146.5 66.5
t55.5 158.5zM186 347q0 -55 19 -100l297 304q-47 33 -110 33h-4q-92 -1 -147 -67.5t-55 -157.5v-12zM299 755l-28 81l253 99l26 -75q9 -28 2.5 -41t-30.5 -18z" />
    <glyph glyph-name="oslashacute" unicode="&#x1ff;" horiz-adv-x="567" 
d="M28 245v2q0 107 75 181t180 74h1q80 0 147 -46l52 53l62 -57l-54 -55q48 -67 48 -150v-2q0 -107 -75 -181t-180 -74h-1q-84 0 -147 46l-48 -49l-60 57l49 50q-49 66 -49 151zM166 249v-6q0 -26 8 -50l167 170q-25 14 -55 14h-5q-50 0 -82.5 -35.5t-32.5 -92.5zM401 249
q0 25 -8 49l-167 -170q23 -13 55 -13h5q50 0 82.5 35.5t32.5 92.5v6zM198 543l-35 79l244 120l32 -73q11 -26 5.5 -39.5t-28.5 -20.5z" />
    <glyph glyph-name="Scommaaccent" unicode="&#x218;" horiz-adv-x="566" 
d="M46 514q0 92 67.5 147t180.5 55h5q114 0 208 -56l-56 -109q-75 42 -154 42h-2q-49 0 -80 -19.5t-31 -51.5t31 -53.5t104 -47.5q109 -39 159 -82t50 -123q0 -108 -70 -167t-186 -59h-3q-127 0 -235 73l56 104q98 -53 175 -53h3q54 0 87.5 24.5t33.5 63.5q0 32 -31.5 52.5
t-118.5 51.5q-98 33 -145.5 81t-47.5 127zM356 -61v-97q-3 -102 -80 -142l-47 45q49 28 53 75h-16q-21 0 -29 9t-8 29v81h127z" />
    <glyph glyph-name="scommaaccent" unicode="&#x219;" horiz-adv-x="475" 
d="M390 352q-65 38 -137 38q-83 0 -83 -40q0 -18 28 -29t67.5 -20t79 -22.5t67.5 -44.5t28 -77q0 -76 -54.5 -121.5t-151.5 -45.5q-53 0 -113.5 22.5t-92.5 53.5l48 91q82 -55 152 -55q38 0 59 12.5t21 29.5q0 20 -27.5 32t-66.5 20.5t-78 22t-66.5 46t-27.5 83.5
q0 67 55 110.5t149 43.5q108 0 189 -57zM308 -71v-97q-3 -102 -80 -142l-47 45q49 28 53 75h-16q-21 0 -29 9t-8 29v81h127z" />
    <glyph glyph-name="uni021A" unicode="&#x21a;" horiz-adv-x="585" 
d="M357 0h-140v587h-204v119h572l-20 -119h-208v-587zM350 -71v-97q-3 -102 -80 -142l-47 45q49 28 53 75h-16q-21 0 -29 9t-8 29v81h127z" />
    <glyph glyph-name="uni021B" unicode="&#x21b;" horiz-adv-x="392" 
d="M48 615l135 40v-163h170v-110h-98q-34 0 -52 19l-20 21v-233q0 -42 14 -59q18 -21 61 -21q40 0 87 20l35 -98q-67 -41 -150 -41t-132.5 48.5t-49.5 137.5v439zM282 -71v-97q-3 -102 -80 -142l-47 45q49 28 53 75h-16q-21 0 -29 9t-8 29v81h127z" />
    <glyph glyph-name="circumflex" unicode="&#x2c6;" 
d="M238 626h-7l-74 -85l-96 33l118 151h71q25 0 38 -6t26 -24l92 -121l-96 -32z" />
    <glyph glyph-name="caron" unicode="&#x2c7;" 
d="M223 648h7l74 85l94 -33l-118 -151h-68q-43 0 -70 37l-89 114l98 32z" />
    <glyph glyph-name="breve" unicode="&#x2d8;" 
d="M234 550h-1q-68 0 -118.5 38t-56.5 104l103 14q16 -59 72 -59h1q27 0 46 16t25 43l103 -14q-7 -66 -56.5 -104t-117.5 -38z" />
    <glyph glyph-name="dotaccent" unicode="&#x2d9;" 
d="M297 701v-145h-82q-36 0 -49.5 9.5t-13.5 34.5v101h145z" />
    <glyph glyph-name="ring" unicode="&#x2da;" 
d="M219 549q-46 0 -79.5 31t-33.5 75v1q0 44 33.5 74t79.5 30t79.5 -30t33.5 -74v-1q0 -44 -33.5 -75t-79.5 -31zM220 694h-2q-15 0 -26 -10.5t-11 -26.5v-3q0 -16 11 -26.5t26 -10.5h2q15 0 26 10.5t11 26.5v3q0 16 -11 26.5t-26 10.5z" />
    <glyph glyph-name="ogonek" unicode="&#x2db;" 
d="M228 7h96q-72 -62 -72 -129q0 -20 11 -31t29 -11h1q25 0 43 10l7 -74q-30 -20 -89 -20h-2q-57 0 -88.5 30t-31.5 80q0 42 26.5 82.5t69.5 62.5z" />
    <glyph glyph-name="tilde" unicode="&#x2dc;" 
d="M438 670q-57 -105 -128 -105q-35 0 -68 19l-20 12q-34 20 -55 20q-38 0 -62 -44l-67 45q52 105 137 105q37 0 72 -22l19 -12q32 -19 44 -19q32 0 63 47z" />
    <glyph glyph-name="hungarumlaut" unicode="&#x2dd;" 
d="M101 545l-99 36l159 196l63 -50q41 -33 8 -63zM322 545l-99 36l159 196l63 -50q41 -33 8 -63z" />
    <glyph glyph-name="commaaccent" unicode="&#x326;" 
d="M273 -71v-97q-3 -102 -80 -142l-47 45q49 28 53 75h-16q-21 0 -29 9t-8 29v81h127z" />
    <glyph glyph-name="Omega" unicode="&#x3a9;" horiz-adv-x="778" 
d="M389 716q150 0 244.5 -96.5t94.5 -236.5q0 -173 -128 -276q19 2 64 2h60v-109h-262l-29 16v32q0 23 9.5 41t44.5 56q50 54 74 107t24 122q0 97 -54 153.5t-142 56.5t-142 -56.5t-54 -153.5q0 -69 24 -122t74 -107q35 -38 44.5 -56t9.5 -41v-32l-29 -16h-262v109h60
q45 0 64 -2q-128 103 -128 276q0 140 94.5 236.5t244.5 96.5z" />
    <glyph glyph-name="Omega" unicode="&#x2126;" horiz-adv-x="778" 
d="M389 716q150 0 244.5 -96.5t94.5 -236.5q0 -173 -128 -276q19 2 64 2h60v-109h-262l-29 16v32q0 23 9.5 41t44.5 56q50 54 74 107t24 122q0 97 -54 153.5t-142 56.5t-142 -56.5t-54 -153.5q0 -69 24 -122t74 -107q35 -38 44.5 -56t9.5 -41v-32l-29 -16h-262v109h60
q45 0 64 -2q-128 103 -128 276q0 140 94.5 236.5t244.5 96.5z" />
    <glyph glyph-name="pi" unicode="&#x3c0;" horiz-adv-x="681" 
d="M539 382v-223q0 -29 7 -42t29 -13q24 0 50 13l31 -88q-53 -39 -127 -39q-125 0 -125 141v251h-155v-382h-135v382h-89v110h622l-18 -110h-90z" />
    <glyph glyph-name="Wgrave" unicode="&#x1e80;" horiz-adv-x="1024" 
d="M548 696h-143l46 -139l-141 -405h-4q-19 108 -72 297l-72 257h-150l205 -706h167l132 379l131 -379h166l199 706h-146l-74 -279q-33 -124 -62 -271h-4zM611 836l-28 -81l-223 46q-24 5 -30.5 18t2.5 41l26 75z" />
    <glyph glyph-name="wgrave" unicode="&#x1e81;" horiz-adv-x="801" 
d="M511 0h120l166 492h-133l-59 -182q-24 -72 -37 -147h-1l-155 329h-27l-146 -329h-1q-12 62 -40 152l-55 177h-139l167 -492h119l107 248h1zM488 622l-35 -79l-218 66q-23 7 -28.5 20.5t5.5 39.5l32 73z" />
    <glyph glyph-name="Wacute" unicode="&#x1e82;" horiz-adv-x="1024" 
d="M548 696h-143l46 -139l-141 -405h-4q-19 108 -72 297l-72 257h-150l205 -706h167l132 379l131 -379h166l199 706h-146l-74 -279q-33 -124 -62 -271h-4zM405 755l-28 81l253 99l26 -75q9 -28 2.5 -41t-30.5 -18z" />
    <glyph glyph-name="wacute" unicode="&#x1e83;" horiz-adv-x="801" 
d="M511 0h120l166 492h-133l-59 -182q-24 -72 -37 -147h-1l-155 329h-27l-146 -329h-1q-12 62 -40 152l-55 177h-139l167 -492h119l107 248h1zM341 543l-35 79l244 120l32 -73q11 -26 5.5 -39.5t-28.5 -20.5z" />
    <glyph glyph-name="Wdieresis" unicode="&#x1e84;" horiz-adv-x="1024" 
d="M405 696h143l178 -540h4q29 147 62 271l74 279h146l-199 -706h-166l-131 379l-132 -379h-167l-205 706h150l72 -257q53 -189 72 -297h4l141 405zM472 922v-125h-71q-31 0 -42.5 8t-11.5 30v87h125zM676 922v-125h-71q-31 0 -42.5 8t-11.5 30v87h125z" />
    <glyph glyph-name="wdieresis" unicode="&#x1e85;" horiz-adv-x="801" 
d="M631 0h-120l-113 248h-1l-107 -248h-119l-167 492h139l55 -177q28 -90 40 -152h1l146 329h27l155 -329h1q13 75 37 147l59 182h133zM360 690v-125h-71q-31 0 -42.5 8t-11.5 30v87h125zM564 690v-125h-71q-31 0 -42.5 8t-11.5 30v87h125z" />
    <glyph glyph-name="Ygrave" unicode="&#x1ef2;" horiz-adv-x="625" 
d="M382 0v292l233 414h-155l-79 -154q-36 -69 -66 -136h-2l-67 136l-79 154h-157l232 -414v-292h140zM422 836l-28 -81l-223 46q-24 5 -30.5 18t2.5 41l26 75z" />
    <glyph glyph-name="ygrave" unicode="&#x1ef3;" horiz-adv-x="536" 
d="M142 492h-138l179 -430q44 -105 44 -134q0 -58 -64 -58q-31 0 -75 11l-23 -94q55 -29 129 -29q70 0 116 47t46 118q0 49 -19 93l195 476h-132l-82 -214q-32 -82 -43 -133h-1q-11 44 -50 143zM374 622l-35 -79l-218 66q-23 7 -28.5 20.5t5.5 39.5l32 73z" />
    <glyph glyph-name="endash" unicode="&#x2013;" horiz-adv-x="535" 
d="M475 198h-360q-37 0 -51 9.5t-14 36.5v70h425v-116z" />
    <glyph glyph-name="emdash" unicode="&#x2014;" horiz-adv-x="960" 
d="M50 244v70h850v-116h-785q-37 0 -51 9.5t-14 36.5z" />
    <glyph glyph-name="quoteleft" unicode="&#x2018;" horiz-adv-x="257" 
d="M165 735l39 -41q-59 -61 -64 -117h26q29 0 38.5 -10t9.5 -36v-103h-159v92q0 143 110 215z" />
    <glyph glyph-name="quoteright" unicode="&#x2019;" horiz-adv-x="257" 
d="M92 462l-39 41q59 61 64 117h-26q-29 0 -38.5 10t-9.5 36v103h159v-92q0 -143 -110 -215z" />
    <glyph glyph-name="quotesinglbase" unicode="&#x201a;" horiz-adv-x="257" 
d="M92 -158l-39 41q59 61 64 117h-26q-29 0 -38.5 10t-9.5 36v103h159v-92q0 -143 -110 -215z" />
    <glyph glyph-name="quotedblleft" unicode="&#x201c;" horiz-adv-x="486" 
d="M165 735l39 -41q-59 -61 -64 -117h26q29 0 38.5 -10t9.5 -36v-103h-159v92q0 143 110 215zM394 735l39 -41q-59 -61 -64 -117h26q29 0 38.5 -10t9.5 -36v-103h-159v92q0 143 110 215z" />
    <glyph glyph-name="quotedblright" unicode="&#x201d;" horiz-adv-x="486" 
d="M92 462l-39 41q59 61 64 117h-26q-29 0 -38.5 10t-9.5 36v103h159v-92q0 -143 -110 -215zM321 462l-39 41q59 61 64 117h-26q-29 0 -38.5 10t-9.5 36v103h159v-92q0 -143 -110 -215z" />
    <glyph glyph-name="quotedblbase" unicode="&#x201e;" horiz-adv-x="486" 
d="M92 -158l-39 41q59 61 64 117h-26q-29 0 -38.5 10t-9.5 36v103h159v-92q0 -143 -110 -215zM321 -158l-39 41q59 61 64 117h-26q-29 0 -38.5 10t-9.5 36v103h159v-92q0 -143 -110 -215z" />
    <glyph glyph-name="dagger" unicode="&#x2020;" horiz-adv-x="538" 
d="M508 537v-85q0 -39 -43 -36l-135 7l15 -563h-152l15 563l-135 -7q-43 -3 -43 36v85l178 -8l-15 241h153l-16 -241z" />
    <glyph glyph-name="daggerdbl" unicode="&#x2021;" horiz-adv-x="538" 
d="M508 567v-85q0 -39 -43 -36l-139 7l13 -126l-14 -138l183 9v-85q0 -39 -43 -36l-139 9l19 -226h-152l23 226l-143 -9q-43 -3 -43 36v85l184 -9l-15 139l13 125l-139 -7q-43 -3 -43 36v85l178 -8l-15 211h153l-16 -211z" />
    <glyph glyph-name="bullet" unicode="&#x2022;" horiz-adv-x="385" 
d="M65 341q0 53 37 90.5t90 37.5t90.5 -37.5t37.5 -90.5t-37.5 -90t-90.5 -37t-90 37t-37 90z" />
    <glyph glyph-name="ellipsis" unicode="&#x2026;" horiz-adv-x="747" 
d="M199 149v-149h-84q-37 0 -51 9.5t-14 36.5v103h149zM448 149v-149h-84q-37 0 -51 9.5t-14 36.5v103h149zM697 149v-149h-84q-37 0 -51 9.5t-14 36.5v103h149z" />
    <glyph glyph-name="perthousand" unicode="&#x2030;" horiz-adv-x="1461" 
d="M222 332q-87 0 -141.5 52t-54.5 141t54.5 140t141.5 51t141.5 -51t54.5 -140t-54.5 -141t-141.5 -52zM222 431q37 0 58.5 24t21.5 70q0 92 -80 92t-80 -92q0 -46 21.5 -70t58.5 -24zM792 -10q-87 0 -141.5 52t-54.5 141t54.5 140t141.5 51t141.5 -51t54.5 -140
t-54.5 -141t-141.5 -52zM792 89q37 0 58.5 24t21.5 70q0 92 -80 92t-80 -92q0 -46 21.5 -70t58.5 -24zM1239 -10q-87 0 -141.5 52t-54.5 141t54.5 140t141.5 51t141.5 -51t54.5 -140t-54.5 -141t-141.5 -52zM1239 89q37 0 58.5 24t21.5 70q0 92 -80 92t-80 -92
q0 -46 21.5 -70t58.5 -24zM743 706l-351 -706h-130l351 706h130z" />
    <glyph glyph-name="guilsinglleft" unicode="&#x2039;" horiz-adv-x="396" 
d="M182 248l160 -149l-80 -79l-227 203v58l234 197l82 -75l-169 -150v-5z" />
    <glyph glyph-name="guilsinglright" unicode="&#x203a;" horiz-adv-x="396" 
d="M54 99l160 149v5l-169 150l82 75l234 -197v-58l-227 -203z" />
    <glyph glyph-name="fraction" unicode="&#x2044;" horiz-adv-x="201" 
d="M341 706l-351 -706h-130l351 706h130z" />
    <glyph glyph-name="Euro" unicode="&#x20ac;" horiz-adv-x="755" 
d="M434 123q98 0 156 91l124 -45q-96 -179 -283 -179q-129 0 -204.5 63t-100.5 173h-51q-35 0 -44 7.5t-9 31.5v49h92q-1 13 -1 37v6q0 21 1 32h-39q-35 0 -44 7.5t-9 31.5v49h104q27 111 104.5 175t200.5 64h3q91 0 160.5 -47.5t106.5 -142.5l-125 -35q-53 94 -147 94h-3
q-112 0 -152 -108h201v-88h-218q-1 -10 -1 -31v-4q0 -26 1 -40h218v-88h-202q18 -48 59 -75.5t102 -27.5z" />
    <glyph glyph-name="litre" unicode="&#x2113;" horiz-adv-x="298" 
d="M188 716v-613l1 -1q31 8 70 8h17v-110h-97q-63 0 -95 29q-31 28 -31 90v557z" />
    <glyph glyph-name="numero" unicode="&#x2116;" horiz-adv-x="1128" 
d="M144 706l385 -439v439h138v-706h-75l-385 439v-439h-138v706h75zM917 246q-80 0 -137.5 56t-57.5 136v2q0 80 57.5 135.5t137.5 55.5t137.5 -55.5t57.5 -135.5v-2q0 -80 -57.5 -136t-137.5 -56zM919 527h-4q-33 0 -55 -24t-22 -62v-4q0 -37 22 -60t55 -23h4q33 0 55 23
t22 60v4q0 38 -22 62t-55 24z" />
    <glyph glyph-name="trademark" unicode="&#x2122;" horiz-adv-x="832" 
d="M227 317h-115v260h-92v91h316l-15 -91h-94v-260zM688 317h104v351h-85l-121 -136l-123 136h-86v-351h104v194l98 -108h10l99 109v-195z" />
    <glyph glyph-name="estimated" unicode="&#x212e;" horiz-adv-x="780" 
d="M752 307h-585q-1 0 -1 -3v-177q0 -8 7 -20q43 -42 101 -67.5t118 -25.5q68 0 128 28.5t101 78.5h59q-51 -60 -127.5 -95t-161.5 -35q-150 0 -256.5 95t-106.5 229q0 136 106.5 231t256.5 95t255.5 -95t105.5 -231v-8zM615 330v178q0 13 -8 21q-92 89 -215 89
q-124 0 -218 -92q-8 -8 -8 -22v-174q0 -3 1 -3h447q1 0 1 3z" />
    <glyph glyph-name="partialdiff" unicode="&#x2202;" horiz-adv-x="634" 
d="M53 571q38 70 105 107.5t156 37.5q137 0 207 -92.5t70 -265.5q0 -179 -78 -273.5t-218 -94.5q-115 0 -188.5 67t-73.5 178q0 99 69.5 161.5t179.5 62.5q81 0 143 -40l22 -14q-4 93 -42 139t-101 46q-77 0 -117 -60zM442 277q-57 57 -146 57q-54 0 -87 -28.5t-33 -73.5
q0 -52 34.5 -85t88.5 -33q62 0 101 45t42 118z" />
    <glyph glyph-name="Delta" unicode="&#x2206;" horiz-adv-x="702" 
d="M26 88l261 595l109 33l280 -628l-35 -88h-578zM347 502l-165 -382h333l-164 382h-4z" />
    <glyph glyph-name="product" unicode="&#x220f;" horiz-adv-x="777" 
d="M503 -119v705h-232v-705h-140v705h-118v120h764l-20 -120h-114v-705h-140z" />
    <glyph glyph-name="summation" unicode="&#x2211;" horiz-adv-x="590" 
d="M472 299l-259 -243h357l-20 -120h-491l-22 112l284 275l-293 279l33 104h517l-20 -120h-339l253 -236v-51z" />
    <glyph glyph-name="minus" unicode="&#x2212;" horiz-adv-x="590" 
d="M545 256h-435q-37 0 -51 9.5t-14 36.5v70h500v-116z" />
    <glyph glyph-name="radical" unicode="&#x221a;" horiz-adv-x="747" 
d="M18 537h206l137 -376l224 665h157l-308 -826h-130q-17 0 -22 13l-166 408h-54q-44 0 -44 50v66z" />
    <glyph glyph-name="infinity" unicode="&#x221e;" horiz-adv-x="835" 
d="M259 433q-35 0 -61 -26t-26 -65q0 -38 26.5 -65.5t61.5 -27.5t61.5 24t37.5 65q-12 43 -38.5 69t-61.5 26zM588 123q-112 0 -166 96q-64 -96 -171 -96q-93 0 -154.5 61t-61.5 159q0 92 63 154.5t151 62.5q116 0 176 -99q60 99 168 99q90 0 148.5 -61t58.5 -158
q0 -94 -61.5 -156t-150.5 -62zM576 433q-35 0 -61.5 -26t-38.5 -69q11 -41 37.5 -65t61.5 -24t61.5 27.5t26.5 65.5q0 39 -26 65t-61 26z" />
    <glyph glyph-name="integral" unicode="&#x222b;" horiz-adv-x="438" 
d="M221 477l114 -453q15 -59 15 -105q0 -72 -51.5 -118t-135.5 -46h-3q-75 0 -150 40l56 111q42 -26 85 -26h3q26 0 42 13.5t16 35.5q0 25 -10 65l-114 453q-15 58 -15 105q0 72 51.5 118t135.5 46h3q75 0 150 -40l-56 -111q-42 26 -85 26h-3q-26 0 -42 -13.5t-16 -35.5
q0 -25 10 -65z" />
    <glyph glyph-name="approxequal" unicode="&#x2248;" horiz-adv-x="590" 
d="M394 351q-51 0 -104 30l-30 19q-41 23 -57 23q-22 0 -45.5 -20t-40.5 -52l-86 60q29 54 74.5 89t95.5 35q44 0 96 -29l35 -21q36 -20 58 -20q42 0 89 63l80 -67q-32 -52 -77 -81t-88 -29zM394 113q-58 0 -104 30l-30 19q-37 23 -57 23q-22 0 -45.5 -20t-40.5 -52l-86 60
q29 54 74.5 89t95.5 35q44 0 96 -29l35 -21q36 -20 58 -20q42 0 89 63l80 -67q-32 -52 -77 -81t-88 -29z" />
    <glyph glyph-name="notequal" unicode="&#x2260;" horiz-adv-x="590" 
d="M545 140h-257l-39 -109h-100l39 109h-78q-37 0 -51 9.5t-14 36.5v70h185l42 116h-162q-37 0 -51 9.5t-14 36.5v70h269l39 109h100l-39 -109h131v-116h-173l-42 -116h215v-116z" />
    <glyph glyph-name="lessequal" unicode="&#x2264;" horiz-adv-x="590" 
d="M545 116h-500v-70q0 -27 14 -36.5t51 -9.5h435v116zM509 301l-56 -104l-370 178v92l375 197l55 -102l-261 -139v-2z" />
    <glyph glyph-name="greaterequal" unicode="&#x2265;" horiz-adv-x="590" 
d="M143 197l-56 104l257 120v2l-261 139l55 102l375 -197v-92zM545 116h-500v-70q0 -27 14 -36.5t51 -9.5h435v116z" />
    <glyph glyph-name="lozenge" unicode="&#x25ca;" horiz-adv-x="658" 
d="M643 354q0 -25 -18 -51l-230 -303h-124l-237 303q-19 26 -19 51q0 23 18 49l230 303h126l235 -303q19 -26 19 -49zM493 353l-166 215h-3l-160 -214l167 -217h2z" />
    <glyph glyph-name="apple" unicode="&#xf8ff;" horiz-adv-x="583" 
d="M483 199h-255v64h193v63h-193v192h255v-64h-191v-64h191v-191zM483 583h-319v-519h72v-64h-136v647h383v-64z" />
    <glyph glyph-name="grave.cap" 
d="M383 836l-28 -81l-223 46q-24 5 -30.5 18t2.5 41l26 75z" />
    <glyph glyph-name="acute.cap" 
d="M148 755l-28 81l253 99l26 -75q9 -28 2.5 -41t-30.5 -18z" />
    <glyph glyph-name="dieresis.cap" 
d="M187 922v-125h-71q-31 0 -42.5 8t-11.5 30v87h125zM391 922v-125h-71q-31 0 -42.5 8t-11.5 30v87h125z" />
    <glyph glyph-name="circumflex.cap" 
d="M236 838h-7l-74 -85l-96 33l118 151h71q25 0 38 -6t26 -24l92 -121l-96 -32z" />
    <glyph glyph-name="tilde.cap" 
d="M451 867q-57 -105 -128 -105q-35 0 -68 19l-20 12q-34 20 -55 20q-38 0 -62 -44l-67 45q52 105 137 105q37 0 72 -22l19 -12q32 -19 44 -19q32 0 63 47z" />
    <glyph glyph-name="macron.cap" 
d="M415 878v-112h-290q-31 0 -42.5 8t-11.5 30v74h344z" />
    <glyph glyph-name="breve.cap" 
d="M245 753h-1q-68 0 -118.5 38t-56.5 104l103 14q16 -59 72 -59h1q27 0 46 16t25 43l103 -14q-7 -66 -56.5 -104t-117.5 -38z" />
    <glyph glyph-name="dotaccent.cap" 
d="M292 919v-145h-82q-36 0 -49.5 9.5t-13.5 34.5v101h145z" />
    <glyph glyph-name="ring.cap" 
d="M225 720q-46 0 -79.5 31t-33.5 75v1q0 44 33.5 74t79.5 30t79.5 -30t33.5 -74v-1q0 -44 -33.5 -75t-79.5 -31zM226 865h-2q-15 0 -26 -10.5t-11 -26.5v-3q0 -16 11 -26.5t26 -10.5h2q15 0 26 10.5t11 26.5v3q0 16 -11 26.5t-26 10.5z" />
    <glyph glyph-name="hungarumlaut.cap" 
d="M134 759l-99 36l153 166l63 -50q25 -20 25 -37q0 -15 -17 -26zM373 759l-99 36l153 166l63 -50q25 -20 25 -37q0 -15 -17 -26z" />
    <glyph glyph-name="caron.cap" 
d="M242 859h7l74 85l94 -33l-118 -151h-68q-43 0 -70 37l-89 114l98 32z" />
    </font>
</defs>
</svg>
